<?xml version="1.0" encoding="UTF-8" standalone="no"?>
<!DOCTYPE svg PUBLIC "-//W3C//DTD SVG 1.1//EN"
 "http://www.w3.org/Graphics/SVG/1.1/DTD/svg11.dtd">
<!-- Generated by graphviz version 9.0.0 (20230911.1827)
 -->
<!-- Title: src/lib/fukuro/logger.c Pages: 1 -->
<svg width="348pt" height="83pt"
 viewBox="0.00 0.00 347.88 82.50" xmlns="http://www.w3.org/2000/svg" xmlns:xlink="http://www.w3.org/1999/xlink">
<g id="graph0" class="graph" transform="scale(1 1) rotate(0) translate(4 78.5)">
<title>src/lib/fukuro/logger.c</title>
<!-- Node1 -->
<g id="Node000001" class="node">
<title>Node1</title>
<g id="a_Node000001"><a xlink:title=" ">
<polygon fill="#999999" stroke="#666666" points="220.5,-74.5 111.5,-74.5 111.5,-55.25 220.5,-55.25 220.5,-74.5"/>
<text text-anchor="middle" x="166" y="-61" font-family="Helvetica,sans-Serif" font-size="10.00">src/lib/fukuro/logger.c</text>
</a>
</g>
</g>
<!-- Node2 -->
<g id="Node000002" class="node">
<title>Node2</title>
<g id="a_Node000002"><a xlink:title=" ">
<polygon fill="#e0e0e0" stroke="#999999" points="82,-19.25 0,-19.25 0,0 82,0 82,-19.25"/>
<text text-anchor="middle" x="41" y="-5.75" font-family="Helvetica,sans-Serif" font-size="10.00">machine/arch.h</text>
</a>
</g>
</g>
<!-- Node1&#45;&gt;Node2 -->
<g id="edge1_Node000001_Node000002" class="edge">
<title>Node1&#45;&gt;Node2</title>
<g id="a_edge1_Node000001_Node000002"><a xlink:title=" ">
<path fill="none" stroke="#63b8ff" d="M144.8,-54.84C125.04,-46.43 95.33,-33.77 72.75,-24.15"/>
<polygon fill="#63b8ff" stroke="#63b8ff" points="74.27,-20.99 63.7,-20.3 71.53,-27.43 74.27,-20.99"/>
</a>
</g>
</g>
<!-- Node3 -->
<g id="Node000003" class="node">
<title>Node3</title>
<g id="a_Node000003"><a xlink:title=" ">
<polygon fill="#e0e0e0" stroke="#999999" points="150.25,-19.25 99.75,-19.25 99.75,0 150.25,0 150.25,-19.25"/>
<text text-anchor="middle" x="125" y="-5.75" font-family="Helvetica,sans-Serif" font-size="10.00">stdarg.h</text>
</a>
</g>
</g>
<!-- Node1&#45;&gt;Node3 -->
<g id="edge2_Node000001_Node000003" class="edge">
<title>Node1&#45;&gt;Node3</title>
<g id="a_edge2_Node000001_Node000003"><a xlink:title=" ">
<path fill="none" stroke="#63b8ff" d="M159.23,-55.08C153.68,-47.88 145.66,-37.46 138.77,-28.51"/>
<polygon fill="#63b8ff" stroke="#63b8ff" points="141.71,-26.6 132.84,-20.81 136.17,-30.87 141.71,-26.6"/>
</a>
</g>
</g>
<!-- Node4 -->
<g id="Node000004" class="node">
<title>Node4</title>
<g id="a_Node000004"><a xlink:href="../../d1/d8c/logger_8h.html" target="_top" xlink:title=" ">
<polygon fill="white" stroke="#666666" points="247.88,-19.25 168.12,-19.25 168.12,0 247.88,0 247.88,-19.25"/>
<text text-anchor="middle" x="208" y="-5.75" font-family="Helvetica,sans-Serif" font-size="10.00">fukuro/logger.h</text>
</a>
</g>
</g>
<!-- Node1&#45;&gt;Node4 -->
<g id="edge3_Node000001_Node000004" class="edge">
<title>Node1&#45;&gt;Node4</title>
<g id="a_edge3_Node000001_Node000004"><a xlink:title=" ">
<path fill="none" stroke="#63b8ff" d="M172.94,-55.08C178.62,-47.88 186.84,-37.46 193.89,-28.51"/>
<polygon fill="#63b8ff" stroke="#63b8ff" points="196.53,-30.82 199.98,-20.8 191.04,-26.48 196.53,-30.82"/>
</a>
</g>
</g>
<!-- Node5 -->
<g id="Node000005" class="node">
<title>Node5</title>
<g id="a_Node000005"><a xlink:href="../../d9/dab/src_2lib_2minic_2string_8h.html" target="_top" xlink:title=" ">
<polygon fill="white" stroke="#666666" points="339.88,-19.25 266.12,-19.25 266.12,0 339.88,0 339.88,-19.25"/>
<text text-anchor="middle" x="303" y="-5.75" font-family="Helvetica,sans-Serif" font-size="10.00">minic/string.h</text>
</a>
</g>
</g>
<!-- Node1&#45;&gt;Node5 -->
<g id="edge4_Node000001_Node000005" class="edge">
<title>Node1&#45;&gt;Node5</title>
<g id="a_edge4_Node000001_Node000005"><a xlink:title=" ">
<path fill="none" stroke="#63b8ff" d="M189.24,-54.84C211.19,-46.31 244.35,-33.42 269.21,-23.76"/>
<polygon fill="#63b8ff" stroke="#63b8ff" points="270.18,-27.14 278.24,-20.25 267.65,-20.61 270.18,-27.14"/>
</a>
</g>
</g>
</g>
</svg>
