<?xml version="1.0" encoding="UTF-8" standalone="no"?>
<!DOCTYPE svg PUBLIC "-//W3C//DTD SVG 1.1//EN"
 "http://www.w3.org/Graphics/SVG/1.1/DTD/svg11.dtd">
<!-- Generated by graphviz version 9.0.0 (20230911.1827)
 -->
<!-- Title: src/kernel/arch/aarch64/arch.c Pages: 1 -->
<svg width="206pt" height="94pt"
 viewBox="0.00 0.00 206.38 93.75" xmlns="http://www.w3.org/2000/svg" xmlns:xlink="http://www.w3.org/1999/xlink">
<g id="graph0" class="graph" transform="scale(1 1) rotate(0) translate(4 89.75)">
<title>src/kernel/arch/aarch64/arch.c</title>
<!-- Node1 -->
<g id="Node000001" class="node">
<title>Node1</title>
<g id="a_Node000001"><a xlink:title=" ">
<polygon fill="#999999" stroke="#666666" points="176,-85.75 58,-85.75 58,-55.25 176,-55.25 176,-85.75"/>
<text text-anchor="start" x="66" y="-72.25" font-family="Helvetica,sans-Serif" font-size="10.00">src/kernel/arch/aarch64</text>
<text text-anchor="middle" x="117" y="-61" font-family="Helvetica,sans-Serif" font-size="10.00">/arch.c</text>
</a>
</g>
</g>
<!-- Node2 -->
<g id="Node000002" class="node">
<title>Node2</title>
<g id="a_Node000002"><a xlink:title=" ">
<polygon fill="#e0e0e0" stroke="#999999" points="82,-19.25 0,-19.25 0,0 82,0 82,-19.25"/>
<text text-anchor="middle" x="41" y="-5.75" font-family="Helvetica,sans-Serif" font-size="10.00">machine/arch.h</text>
</a>
</g>
</g>
<!-- Node1&#45;&gt;Node2 -->
<g id="edge1_Node000001_Node000002" class="edge">
<title>Node1&#45;&gt;Node2</title>
<g id="a_edge1_Node000001_Node000002"><a xlink:title=" ">
<path fill="none" stroke="#63b8ff" d="M98.21,-54.95C87.09,-46.33 72.98,-35.4 61.56,-26.55"/>
<polygon fill="#63b8ff" stroke="#63b8ff" points="63.96,-23.99 53.91,-20.63 59.67,-29.52 63.96,-23.99"/>
</a>
</g>
</g>
<!-- Node3 -->
<g id="Node000003" class="node">
<title>Node3</title>
<g id="a_Node000003"><a xlink:href="../../de/da1/rpi_8h.html" target="_top" xlink:title=" ">
<polygon fill="white" stroke="#666666" points="134,-19.25 100,-19.25 100,0 134,0 134,-19.25"/>
<text text-anchor="middle" x="117" y="-5.75" font-family="Helvetica,sans-Serif" font-size="10.00">rpi.h</text>
</a>
</g>
</g>
<!-- Node1&#45;&gt;Node3 -->
<g id="edge2_Node000001_Node000003" class="edge">
<title>Node1&#45;&gt;Node3</title>
<g id="a_edge2_Node000001_Node000003"><a xlink:title=" ">
<path fill="none" stroke="#63b8ff" d="M117,-54.95C117,-47.71 117,-38.84 117,-30.94"/>
<polygon fill="#63b8ff" stroke="#63b8ff" points="120.5,-31.21 117,-21.21 113.5,-31.21 120.5,-31.21"/>
</a>
</g>
</g>
<!-- Node4 -->
<g id="Node000004" class="node">
<title>Node4</title>
<g id="a_Node000004"><a xlink:href="../../d0/d7e/aarch64_2serial_8h.html" target="_top" xlink:title=" ">
<polygon fill="white" stroke="#666666" points="198.38,-19.25 151.62,-19.25 151.62,0 198.38,0 198.38,-19.25"/>
<text text-anchor="middle" x="175" y="-5.75" font-family="Helvetica,sans-Serif" font-size="10.00">serial.h</text>
</a>
</g>
</g>
<!-- Node1&#45;&gt;Node4 -->
<g id="edge3_Node000001_Node000004" class="edge">
<title>Node1&#45;&gt;Node4</title>
<g id="a_edge3_Node000001_Node000004"><a xlink:title=" ">
<path fill="none" stroke="#63b8ff" d="M131.34,-54.95C139.4,-46.76 149.52,-36.48 157.99,-27.89"/>
<polygon fill="#63b8ff" stroke="#63b8ff" points="160.47,-30.36 165,-20.78 155.49,-25.45 160.47,-30.36"/>
</a>
</g>
</g>
</g>
</svg>
