<?xml version="1.0" encoding="UTF-8" standalone="no"?>
<!DOCTYPE svg PUBLIC "-//W3C//DTD SVG 1.1//EN"
 "http://www.w3.org/Graphics/SVG/1.1/DTD/svg11.dtd">
<!-- Generated by graphviz version 7.0.5 (20221223.1930)
 -->
<!-- Title: src/kernel/arch/x86/64/arch.c Pages: 1 -->
<svg width="470pt" height="93pt"
 viewBox="0.00 0.00 469.50 93.00" xmlns="http://www.w3.org/2000/svg" xmlns:xlink="http://www.w3.org/1999/xlink">
<g id="graph0" class="graph" transform="scale(1 1) rotate(0) translate(4 89)">
<title>src/kernel/arch/x86/64/arch.c</title>
<!-- Node1 -->
<g id="node1" class="node">
<title>Node1</title>
<g id="a_node1"><a xlink:title=" ">
<polygon fill="#999999" stroke="#666666" points="272,-85 173,-85 173,-55 272,-55 272,-85"/>
<text text-anchor="start" x="181" y="-73" font-family="Helvetica,sans-Serif" font-size="10.00">src/kernel/arch/x86</text>
<text text-anchor="middle" x="222.5" y="-62" font-family="Helvetica,sans-Serif" font-size="10.00">/64/arch.c</text>
</a>
</g>
</g>
<!-- Node2 -->
<g id="node2" class="node">
<title>Node2</title>
<g id="a_node2"><a xlink:title=" ">
<polygon fill="#e0e0e0" stroke="#999999" points="83,-19 0,-19 0,0 83,0 83,-19"/>
<text text-anchor="middle" x="41.5" y="-7" font-family="Helvetica,sans-Serif" font-size="10.00">machine/arch.h</text>
</a>
</g>
</g>
<!-- Node1&#45;&gt;Node2 -->
<g id="edge1" class="edge">
<title>Node1&#45;&gt;Node2</title>
<path fill="none" stroke="#63b8ff" d="M177.76,-54.54C147.72,-44.83 108.56,-32.17 79.93,-22.92"/>
<polygon fill="#63b8ff" stroke="#63b8ff" points="81.17,-19.64 70.58,-19.9 79.02,-26.3 81.17,-19.64"/>
</g>
<!-- Node3 -->
<g id="node3" class="node">
<title>Node3</title>
<g id="a_node3"><a xlink:href="../../dd/da9/x86_2serial_8h.html" target="_top" xlink:title=" ">
<polygon fill="white" stroke="#666666" points="166,-19 101,-19 101,0 166,0 166,-19"/>
<text text-anchor="middle" x="133.5" y="-7" font-family="Helvetica,sans-Serif" font-size="10.00">x86/serial.h</text>
</a>
</g>
</g>
<!-- Node1&#45;&gt;Node3 -->
<g id="edge2" class="edge">
<title>Node1&#45;&gt;Node3</title>
<path fill="none" stroke="#63b8ff" d="M200.5,-54.54C187.13,-45.75 170.08,-34.54 156.52,-25.63"/>
<polygon fill="#63b8ff" stroke="#63b8ff" points="158.5,-22.75 148.22,-20.18 154.66,-28.6 158.5,-22.75"/>
</g>
<!-- Node4 -->
<g id="node4" class="node">
<title>Node4</title>
<g id="a_node4"><a xlink:href="../../df/d76/greeting_8h.html" target="_top" xlink:title=" ">
<polygon fill="white" stroke="#666666" points="261,-19 184,-19 184,0 261,0 261,-19"/>
<text text-anchor="middle" x="222.5" y="-7" font-family="Helvetica,sans-Serif" font-size="10.00">x86/greeting.h</text>
</a>
</g>
</g>
<!-- Node1&#45;&gt;Node4 -->
<g id="edge3" class="edge">
<title>Node1&#45;&gt;Node4</title>
<path fill="none" stroke="#63b8ff" d="M222.5,-54.54C222.5,-47.34 222.5,-38.53 222.5,-30.68"/>
<polygon fill="#63b8ff" stroke="#63b8ff" points="226,-30.69 222.5,-20.69 219,-30.69 226,-30.69"/>
</g>
<!-- Node5 -->
<g id="node5" class="node">
<title>Node5</title>
<g id="a_node5"><a xlink:title=" ">
<polygon fill="#e0e0e0" stroke="#999999" points="371.5,-19 279.5,-19 279.5,0 371.5,0 371.5,-19"/>
<text text-anchor="middle" x="325.5" y="-7" font-family="Helvetica,sans-Serif" font-size="10.00">generic/stivale2.h</text>
</a>
</g>
</g>
<!-- Node1&#45;&gt;Node5 -->
<g id="edge4" class="edge">
<title>Node1&#45;&gt;Node5</title>
<path fill="none" stroke="#63b8ff" d="M247.96,-54.54C263.89,-45.49 284.33,-33.88 300.23,-24.85"/>
<polygon fill="#63b8ff" stroke="#63b8ff" points="301.64,-28.08 308.61,-20.09 298.18,-21.99 301.64,-28.08"/>
</g>
<!-- Node6 -->
<g id="node6" class="node">
<title>Node6</title>
<g id="a_node6"><a xlink:title=" ">
<polygon fill="#e0e0e0" stroke="#999999" points="461.5,-19 389.5,-19 389.5,0 461.5,0 461.5,-19"/>
<text text-anchor="middle" x="425.5" y="-7" font-family="Helvetica,sans-Serif" font-size="10.00">kern/logger.h</text>
</a>
</g>
</g>
<!-- Node1&#45;&gt;Node6 -->
<g id="edge5" class="edge">
<title>Node1&#45;&gt;Node6</title>
<path fill="none" stroke="#63b8ff" d="M272.42,-54.61C306.55,-44.78 351.28,-31.89 383.56,-22.59"/>
<polygon fill="#63b8ff" stroke="#63b8ff" points="384.33,-26.01 392.97,-19.87 382.39,-19.28 384.33,-26.01"/>
</g>
</g>
</svg>
