<?xml version="1.0" encoding="UTF-8" standalone="no"?>
<!DOCTYPE svg PUBLIC "-//W3C//DTD SVG 1.1//EN"
 "http://www.w3.org/Graphics/SVG/1.1/DTD/svg11.dtd">
<!-- Generated by graphviz version 9.0.0 (20230911.1827)
 -->
<!-- Title: src/kernel/main.c Pages: 1 -->
<svg width="180pt" height="83pt"
 viewBox="0.00 0.00 179.75 82.50" xmlns="http://www.w3.org/2000/svg" xmlns:xlink="http://www.w3.org/1999/xlink">
<g id="graph0" class="graph" transform="scale(1 1) rotate(0) translate(4 78.5)">
<title>src/kernel/main.c</title>
<!-- Node1 -->
<g id="Node000001" class="node">
<title>Node1</title>
<g id="a_Node000001"><a xlink:title=" ">
<polygon fill="#999999" stroke="#666666" points="133.12,-74.5 42.88,-74.5 42.88,-55.25 133.12,-55.25 133.12,-74.5"/>
<text text-anchor="middle" x="88" y="-61" font-family="Helvetica,sans-Serif" font-size="10.00">src/kernel/main.c</text>
</a>
</g>
</g>
<!-- Node2 -->
<g id="Node000002" class="node">
<title>Node2</title>
<g id="a_Node000002"><a xlink:title=" ">
<polygon fill="#e0e0e0" stroke="#999999" points="82,-19.25 0,-19.25 0,0 82,0 82,-19.25"/>
<text text-anchor="middle" x="41" y="-5.75" font-family="Helvetica,sans-Serif" font-size="10.00">machine/arch.h</text>
</a>
</g>
</g>
<!-- Node1&#45;&gt;Node2 -->
<g id="edge1_Node000001_Node000002" class="edge">
<title>Node1&#45;&gt;Node2</title>
<g id="a_edge1_Node000001_Node000002"><a xlink:title=" ">
<path fill="none" stroke="#63b8ff" d="M80.24,-55.08C73.81,-47.8 64.49,-37.23 56.54,-28.23"/>
<polygon fill="#63b8ff" stroke="#63b8ff" points="59.17,-25.93 49.93,-20.74 53.92,-30.56 59.17,-25.93"/>
</a>
</g>
</g>
<!-- Node3 -->
<g id="Node000003" class="node">
<title>Node3</title>
<g id="a_Node000003"><a xlink:title=" ">
<polygon fill="#e0e0e0" stroke="#999999" points="171.75,-19.25 100.25,-19.25 100.25,0 171.75,0 171.75,-19.25"/>
<text text-anchor="middle" x="136" y="-5.75" font-family="Helvetica,sans-Serif" font-size="10.00">kern/logger.h</text>
</a>
</g>
</g>
<!-- Node1&#45;&gt;Node3 -->
<g id="edge2_Node000001_Node000003" class="edge">
<title>Node1&#45;&gt;Node3</title>
<g id="a_edge2_Node000001_Node000003"><a xlink:title=" ">
<path fill="none" stroke="#63b8ff" d="M95.93,-55.08C102.56,-47.73 112.22,-37.01 120.39,-27.94"/>
<polygon fill="#63b8ff" stroke="#63b8ff" points="122.79,-30.5 126.89,-20.73 117.59,-25.82 122.79,-30.5"/>
</a>
</g>
</g>
</g>
</svg>
