<?xml version="1.0" encoding="UTF-8" standalone="no"?>
<!DOCTYPE svg PUBLIC "-//W3C//DTD SVG 1.1//EN"
 "http://www.w3.org/Graphics/SVG/1.1/DTD/svg11.dtd">
<!-- Generated by graphviz version 9.0.0 (20230911.1827)
 -->
<!-- Title: src/kernel/arch/generic/arch.h Pages: 1 -->
<svg width="506pt" height="116pt"
 viewBox="0.00 0.00 505.88 116.25" xmlns="http://www.w3.org/2000/svg" xmlns:xlink="http://www.w3.org/1999/xlink">
<g id="graph0" class="graph" transform="scale(1 1) rotate(0) translate(4 112.25)">
<title>src/kernel/arch/generic/arch.h</title>
<!-- Node1 -->
<g id="Node000001" class="node">
<title>Node1</title>
<g id="a_Node000001"><a xlink:title=" ">
<polygon fill="#999999" stroke="#666666" points="317.88,-108.25 202.88,-108.25 202.88,-77.75 317.88,-77.75 317.88,-108.25"/>
<text text-anchor="start" x="210.88" y="-94.75" font-family="Helvetica,sans-Serif" font-size="10.00">src/kernel/arch/generic</text>
<text text-anchor="middle" x="260.38" y="-83.5" font-family="Helvetica,sans-Serif" font-size="10.00">/arch.h</text>
</a>
</g>
</g>
<!-- Node2 -->
<g id="Node000002" class="node">
<title>Node2</title>
<g id="a_Node000002"><a xlink:href="../../d4/d72/aarch64_2include_2machine_2arch_8h.html" target="_top" xlink:title=" ">
<polygon fill="white" stroke="#666666" points="118.75,-36.12 0,-36.12 0,-5.62 118.75,-5.62 118.75,-36.12"/>
<text text-anchor="start" x="8" y="-22.62" font-family="Helvetica,sans-Serif" font-size="10.00">src/kernel/arch/aarch64</text>
<text text-anchor="middle" x="59.38" y="-11.38" font-family="Helvetica,sans-Serif" font-size="10.00">/include/machine/arch.h</text>
</a>
</g>
</g>
<!-- Node1&#45;&gt;Node2 -->
<g id="edge1_Node000001_Node000002" class="edge">
<title>Node1&#45;&gt;Node2</title>
<g id="a_edge1_Node000001_Node000002"><a xlink:title=" ">
<path fill="none" stroke="#63b8ff" d="M207.39,-73.51C174.29,-61.97 132.26,-47.3 101.46,-36.56"/>
<polygon fill="#63b8ff" stroke="#63b8ff" points="206.21,-76.81 216.81,-76.8 208.52,-70.2 206.21,-76.81"/>
</a>
</g>
</g>
<!-- Node3 -->
<g id="Node000003" class="node">
<title>Node3</title>
<g id="a_Node000003"><a xlink:href="../../d6/d46/arm_2include_2machine_2arch_8h.html" target="_top" xlink:title=" ">
<polygon fill="white" stroke="#666666" points="255.75,-36.12 137,-36.12 137,-5.62 255.75,-5.62 255.75,-36.12"/>
<text text-anchor="start" x="145" y="-22.62" font-family="Helvetica,sans-Serif" font-size="10.00">src/kernel/arch/arm</text>
<text text-anchor="middle" x="196.38" y="-11.38" font-family="Helvetica,sans-Serif" font-size="10.00">/include/machine/arch.h</text>
</a>
</g>
</g>
<!-- Node1&#45;&gt;Node3 -->
<g id="edge2_Node000001_Node000003" class="edge">
<title>Node1&#45;&gt;Node3</title>
<g id="a_edge2_Node000001_Node000003"><a xlink:title=" ">
<path fill="none" stroke="#63b8ff" d="M239.64,-69.28C229.78,-58.48 218.28,-45.88 209.62,-36.39"/>
<polygon fill="#63b8ff" stroke="#63b8ff" points="236.77,-71.33 246.09,-76.35 241.94,-66.61 236.77,-71.33"/>
</a>
</g>
</g>
<!-- Node4 -->
<g id="Node000004" class="node">
<title>Node4</title>
<g id="a_Node000004"><a xlink:href="../../d8/dc4/x86_232_2include_2machine_2arch_8h.html" target="_top" xlink:title=" ">
<polygon fill="white" stroke="#666666" points="376.88,-41.75 273.88,-41.75 273.88,0 376.88,0 376.88,-41.75"/>
<text text-anchor="start" x="281.88" y="-28.25" font-family="Helvetica,sans-Serif" font-size="10.00">src/kernel/arch/x86</text>
<text text-anchor="start" x="281.88" y="-17" font-family="Helvetica,sans-Serif" font-size="10.00">/32/include/machine</text>
<text text-anchor="middle" x="325.38" y="-5.75" font-family="Helvetica,sans-Serif" font-size="10.00">/arch.h</text>
</a>
</g>
</g>
<!-- Node1&#45;&gt;Node4 -->
<g id="edge3_Node000001_Node000004" class="edge">
<title>Node1&#45;&gt;Node4</title>
<g id="a_edge3_Node000001_Node000004"><a xlink:title=" ">
<path fill="none" stroke="#63b8ff" d="M281.46,-69.25C289.52,-60.55 298.66,-50.7 306.5,-42.24"/>
<polygon fill="#63b8ff" stroke="#63b8ff" points="279.1,-66.65 274.87,-76.36 284.24,-71.41 279.1,-66.65"/>
</a>
</g>
</g>
<!-- Node5 -->
<g id="Node000005" class="node">
<title>Node5</title>
<g id="a_Node000005"><a xlink:href="../../d9/d5d/x86_264_2include_2machine_2arch_8h.html" target="_top" xlink:title=" ">
<polygon fill="white" stroke="#666666" points="497.88,-41.75 394.88,-41.75 394.88,0 497.88,0 497.88,-41.75"/>
<text text-anchor="start" x="402.88" y="-28.25" font-family="Helvetica,sans-Serif" font-size="10.00">src/kernel/arch/x86</text>
<text text-anchor="start" x="402.88" y="-17" font-family="Helvetica,sans-Serif" font-size="10.00">/64/include/machine</text>
<text text-anchor="middle" x="446.38" y="-5.75" font-family="Helvetica,sans-Serif" font-size="10.00">/arch.h</text>
</a>
</g>
</g>
<!-- Node1&#45;&gt;Node5 -->
<g id="edge4_Node000001_Node000005" class="edge">
<title>Node1&#45;&gt;Node5</title>
<g id="a_edge4_Node000001_Node000005"><a xlink:title=" ">
<path fill="none" stroke="#63b8ff" d="M309.83,-73.36C336.03,-63.48 368.19,-51.35 394.72,-41.35"/>
<polygon fill="#63b8ff" stroke="#63b8ff" points="308.91,-69.96 300.78,-76.77 311.37,-76.51 308.91,-69.96"/>
</a>
</g>
</g>
</g>
</svg>
