<?xml version="1.0" encoding="UTF-8" standalone="no"?>
<!DOCTYPE svg PUBLIC "-//W3C//DTD SVG 1.1//EN"
 "http://www.w3.org/Graphics/SVG/1.1/DTD/svg11.dtd">
<!-- Generated by graphviz version 7.0.5 (20221223.1930)
 -->
<!-- Title: src/kernel/arch/generic/arch.h Pages: 1 -->
<svg width="509pt" height="115pt"
 viewBox="0.00 0.00 508.50 115.00" xmlns="http://www.w3.org/2000/svg" xmlns:xlink="http://www.w3.org/1999/xlink">
<g id="graph0" class="graph" transform="scale(1 1) rotate(0) translate(4 111)">
<title>src/kernel/arch/generic/arch.h</title>
<!-- Node1 -->
<g id="node1" class="node">
<title>Node1</title>
<g id="a_node1"><a xlink:title=" ">
<polygon fill="#999999" stroke="#666666" points="319.5,-107 203.5,-107 203.5,-77 319.5,-77 319.5,-107"/>
<text text-anchor="start" x="211.5" y="-95" font-family="Helvetica,sans-Serif" font-size="10.00">src/kernel/arch/generic</text>
<text text-anchor="middle" x="261.5" y="-84" font-family="Helvetica,sans-Serif" font-size="10.00">/arch.h</text>
</a>
</g>
</g>
<!-- Node2 -->
<g id="node2" class="node">
<title>Node2</title>
<g id="a_node2"><a xlink:href="../../d4/d72/aarch64_2include_2machine_2arch_8h.html" target="_top" xlink:title=" ">
<polygon fill="white" stroke="#666666" points="119,-35.5 0,-35.5 0,-5.5 119,-5.5 119,-35.5"/>
<text text-anchor="start" x="8" y="-23.5" font-family="Helvetica,sans-Serif" font-size="10.00">src/kernel/arch/aarch64</text>
<text text-anchor="middle" x="59.5" y="-12.5" font-family="Helvetica,sans-Serif" font-size="10.00">/include/machine/arch.h</text>
</a>
</g>
</g>
<!-- Node1&#45;&gt;Node2 -->
<g id="edge1" class="edge">
<title>Node1&#45;&gt;Node2</title>
<path fill="none" stroke="#63b8ff" d="M209.1,-72.97C175.54,-61.42 132.57,-46.64 101.3,-35.88"/>
<polygon fill="#63b8ff" stroke="#63b8ff" points="207.62,-76.16 218.21,-76.11 209.9,-69.54 207.62,-76.16"/>
</g>
<!-- Node3 -->
<g id="node3" class="node">
<title>Node3</title>
<g id="a_node3"><a xlink:href="../../d6/d46/arm_2include_2machine_2arch_8h.html" target="_top" xlink:title=" ">
<polygon fill="white" stroke="#666666" points="256,-35.5 137,-35.5 137,-5.5 256,-5.5 256,-35.5"/>
<text text-anchor="start" x="145" y="-23.5" font-family="Helvetica,sans-Serif" font-size="10.00">src/kernel/arch/arm</text>
<text text-anchor="middle" x="196.5" y="-12.5" font-family="Helvetica,sans-Serif" font-size="10.00">/include/machine/arch.h</text>
</a>
</g>
</g>
<!-- Node1&#45;&gt;Node3 -->
<g id="edge2" class="edge">
<title>Node1&#45;&gt;Node3</title>
<path fill="none" stroke="#63b8ff" d="M240.44,-68.48C230.43,-57.78 218.75,-45.29 209.95,-35.88"/>
<polygon fill="#63b8ff" stroke="#63b8ff" points="237.61,-70.58 247,-75.49 242.72,-65.8 237.61,-70.58"/>
</g>
<!-- Node4 -->
<g id="node4" class="node">
<title>Node4</title>
<g id="a_node4"><a xlink:href="../../d8/dc4/x86_232_2include_2machine_2arch_8h.html" target="_top" xlink:title=" ">
<polygon fill="white" stroke="#666666" points="378.5,-41 274.5,-41 274.5,0 378.5,0 378.5,-41"/>
<text text-anchor="start" x="282.5" y="-29" font-family="Helvetica,sans-Serif" font-size="10.00">src/kernel/arch/x86</text>
<text text-anchor="start" x="282.5" y="-18" font-family="Helvetica,sans-Serif" font-size="10.00">/32/include/machine</text>
<text text-anchor="middle" x="326.5" y="-7" font-family="Helvetica,sans-Serif" font-size="10.00">/arch.h</text>
</a>
</g>
</g>
<!-- Node1&#45;&gt;Node4 -->
<g id="edge3" class="edge">
<title>Node1&#45;&gt;Node4</title>
<path fill="none" stroke="#63b8ff" d="M282.65,-68.39C290.78,-59.69 300,-49.84 307.87,-41.42"/>
<polygon fill="#63b8ff" stroke="#63b8ff" points="280.28,-65.8 276,-75.49 285.39,-70.58 280.28,-65.8"/>
</g>
<!-- Node5 -->
<g id="node5" class="node">
<title>Node5</title>
<g id="a_node5"><a xlink:href="../../d9/d5d/x86_264_2include_2machine_2arch_8h.html" target="_top" xlink:title=" ">
<polygon fill="white" stroke="#666666" points="500.5,-41 396.5,-41 396.5,0 500.5,0 500.5,-41"/>
<text text-anchor="start" x="404.5" y="-29" font-family="Helvetica,sans-Serif" font-size="10.00">src/kernel/arch/x86</text>
<text text-anchor="start" x="404.5" y="-18" font-family="Helvetica,sans-Serif" font-size="10.00">/64/include/machine</text>
<text text-anchor="middle" x="448.5" y="-7" font-family="Helvetica,sans-Serif" font-size="10.00">/arch.h</text>
</a>
</g>
</g>
<!-- Node1&#45;&gt;Node5 -->
<g id="edge4" class="edge">
<title>Node1&#45;&gt;Node5</title>
<path fill="none" stroke="#63b8ff" d="M310.76,-72.69C337.11,-62.9 369.55,-50.84 396.32,-40.89"/>
<polygon fill="#63b8ff" stroke="#63b8ff" points="309.82,-69.31 301.67,-76.07 312.26,-75.87 309.82,-69.31"/>
</g>
</g>
</svg>
