<svg width="489" height="667" viewBox="0 0 489 667" fill="none" xmlns="http://www.w3.org/2000/svg">
<rect x="180" y="336" width="50" height="244" rx="25" fill="#46322F"/>
<rect x="257" y="336" width="50" height="244" rx="25" fill="#46322F"/>
<ellipse cx="128" cy="335.767" rx="91.4315" ry="153.327" transform="rotate(-15 128 335.767)" fill="#6B504C"/>
<ellipse cx="361" cy="335.767" rx="91.4315" ry="153.327" transform="rotate(15 361 335.767)" fill="#6B504C"/>
<path d="M417.086 186.382C428.044 376.948 338.755 526 242.743 526C146.731 526 61.426 377.949 68.3998 193.385C68.3998 70.4588 146.731 80.8457 242.743 80.8457C338.755 80.8457 417.086 63.4563 417.086 186.382Z" fill="#46322F"/>
<ellipse cx="243" cy="191.5" rx="175" ry="163.5" fill="#6B504C"/>
<ellipse cx="243" cy="172.5" rx="175" ry="163.5" fill="#46322F"/>
<circle cx="171" cy="156" r="59" fill="black"/>
<circle cx="171" cy="156" r="43.92" stroke="#FFE408" stroke-width="16"/>
<circle cx="316" cy="156" r="59" fill="black"/>
<circle cx="316" cy="156" r="43.92" stroke="#FFE408" stroke-width="16"/>
<path d="M243.5 186L40.9992 -8.31564e-06L243.5 95.3333L469.5 0L243.5 186Z" fill="black"/>
<path d="M242.5 295L209.158 220L242 213L275.842 220L242.5 295Z" fill="#FFE408"/>
<path d="M276 219C276 225.075 261.002 230 242.5 230C223.998 230 209 225.075 209 219C209 212.925 223.998 208 242.5 208C261.002 208 276 212.925 276 219Z" fill="#FFE408"/>
<path d="M330.879 519.685C343.195 565.649 317.222 612.545 272.867 624.43C228.512 636.315 182.571 608.688 170.255 562.724C157.939 516.76 170.391 419.404 214.746 407.519C259.101 395.635 318.563 473.721 330.879 519.685Z" fill="#DEDEDE"/>
<path d="M402.585 595.292C392.048 634.614 352.885 658.286 315.111 648.164C277.337 638.043 255.257 597.961 265.793 558.639C276.33 519.317 327.059 452.478 364.833 462.599C402.607 472.721 413.121 555.97 402.585 595.292Z" fill="white"/>
<path d="M207.054 551.602C224.41 581.663 215.07 619.549 186.192 636.221C157.314 652.894 119.835 642.04 102.479 611.979C85.1229 581.918 75.41 511.031 104.288 494.359C133.165 477.686 189.698 521.541 207.054 551.602Z" fill="#F0F0F0"/>
</svg>
