<?xml version="1.0" encoding="UTF-8" standalone="no"?>
<!DOCTYPE svg PUBLIC "-//W3C//DTD SVG 1.1//EN"
 "http://www.w3.org/Graphics/SVG/1.1/DTD/svg11.dtd">
<!-- Generated by graphviz version 2.44.0 ()
 -->
<!-- Title: kernel Pages: 1 -->
<svg width="166pt" height="132pt"
 viewBox="0.00 0.00 166.00 132.00" xmlns="http://www.w3.org/2000/svg" xmlns:xlink="http://www.w3.org/1999/xlink">
<g id="graph0" class="graph" transform="scale(1 1) rotate(0) translate(4 128)">
<title>kernel</title>
<polygon fill="white" stroke="transparent" points="-4,4 -4,-128 162,-128 162,4 -4,4"/>
<g id="clust1" class="cluster">
<title>clusterdir_dc43877d82dd332f9fb2071fcca799d6</title>
<g id="a_clust1"><a xlink:href="dir_dc43877d82dd332f9fb2071fcca799d6.html" target="_top">
<polygon fill="#eeeeff" stroke="black" points="8,-64 8,-116 150,-116 150,-64 8,-64"/>
</a>
</g>
</g>
<!-- dir_dc43877d82dd332f9fb2071fcca799d6 -->
<g id="node1" class="node">
<title>dir_dc43877d82dd332f9fb2071fcca799d6</title>
<text text-anchor="middle" x="115" y="-87.5" font-family="Helvetica,sans-Serif" font-size="10.00">kernel</text>
</g>
<!-- dir_3dd30a497388ee684638f120a124721c -->
<g id="node2" class="node">
<title>dir_3dd30a497388ee684638f120a124721c</title>
<g id="a_node2"><a xlink:href="dir_3dd30a497388ee684638f120a124721c.html" target="_top" xlink:title="src">
<polygon fill="white" stroke="black" points="70,-108 16,-108 16,-72 70,-72 70,-108"/>
<text text-anchor="middle" x="43" y="-87.5" font-family="Helvetica,sans-Serif" font-size="10.00">src</text>
</a>
</g>
</g>
<!-- dir_373dbc578909e855ad4333204b592304 -->
<g id="node3" class="node">
<title>dir_373dbc578909e855ad4333204b592304</title>
<g id="a_node3"><a xlink:href="dir_373dbc578909e855ad4333204b592304.html" target="_top" xlink:title="libk">
<polygon fill="white" stroke="red" points="70,-36 16,-36 16,0 70,0 70,-36"/>
<text text-anchor="middle" x="43" y="-15.5" font-family="Helvetica,sans-Serif" font-size="10.00">libk</text>
</a>
</g>
</g>
<!-- dir_3dd30a497388ee684638f120a124721c&#45;&gt;dir_373dbc578909e855ad4333204b592304 -->
<g id="edge1" class="edge">
<title>dir_3dd30a497388ee684638f120a124721c&#45;&gt;dir_373dbc578909e855ad4333204b592304</title>
<path fill="none" stroke="black" d="M43,-71.7C43,-63.98 43,-54.71 43,-46.11"/>
<polygon fill="black" stroke="black" points="46.5,-46.1 43,-36.1 39.5,-46.1 46.5,-46.1"/>
<g id="a_edge1&#45;headlabel"><a xlink:href="dir_000016_000017.html" target="_top" xlink:title="1">
<text text-anchor="middle" x="49.34" y="-47.2" font-family="Helvetica,sans-Serif" font-size="10.00">1</text>
</a>
</g>
</g>
</g>
</svg>
