<?xml version="1.0" encoding="UTF-8" standalone="no"?>
<!DOCTYPE svg PUBLIC "-//W3C//DTD SVG 1.1//EN"
 "http://www.w3.org/Graphics/SVG/1.1/DTD/svg11.dtd">
<!-- Generated by graphviz version 3.0.0 (20220413.0242)
 -->
<!-- Title: arch/x86_64/include Pages: 1 -->
<svg width="182pt" height="159pt"
 viewBox="0.00 0.00 182.00 159.00" xmlns="http://www.w3.org/2000/svg" xmlns:xlink="http://www.w3.org/1999/xlink">
<g id="graph0" class="graph" transform="scale(1 1) rotate(0) translate(4 155)">
<title>arch/x86_64/include</title>
<polygon fill="white" stroke="transparent" points="-4,4 -4,-155 178,-155 178,4 -4,4"/>
<g id="clust1" class="cluster">
<title>clusterdir_e1dc58d3d3e690ae6f284471dd154692</title>
<g id="a_clust1"><a xlink:href="dir_e1dc58d3d3e690ae6f284471dd154692.html" target="_top" xlink:title="x86_64">
<polygon fill="#e1d8d2" stroke="#7f7f7f" stroke-dasharray="5,2" points="8,-56 8,-143 166,-143 166,-56 8,-56"/>
<text text-anchor="middle" x="87" y="-131" font-family="Helvetica,sans-Serif" font-size="10.00">x86_64</text>
</a>
</g>
</g>
<g id="clust2" class="cluster">
<title>clusterdir_607129271d960798f61db932c43ebb76</title>
<g id="a_clust2"><a xlink:href="dir_607129271d960798f61db932c43ebb76.html" target="_top">
<polygon fill="#e1d8d2" stroke="#404040" stroke-width="2" points="16,-64 16,-116 158,-116 158,-64 16,-64"/>
</a>
</g>
</g>
<!-- dir_607129271d960798f61db932c43ebb76 -->
<g id="node1" class="node">
<title>dir_607129271d960798f61db932c43ebb76</title>
<text text-anchor="middle" x="123" y="-87.5" font-family="Helvetica,sans-Serif" font-size="10.00">include</text>
</g>
<!-- dir_b78ac2ed9399f82d944e4688a0a8093c -->
<g id="node2" class="node">
<title>dir_b78ac2ed9399f82d944e4688a0a8093c</title>
<g id="a_node2"><a xlink:href="dir_b78ac2ed9399f82d944e4688a0a8093c.html" target="_top" xlink:title="machine">
<polygon fill="#7b6152" stroke="#404040" points="78,-108 24,-108 24,-72 78,-72 78,-108"/>
<text text-anchor="middle" x="51" y="-87.5" font-family="Helvetica,sans-Serif" font-size="10.00">machine</text>
</a>
</g>
</g>
<!-- dir_33f5e7db3cf9e784015fa8b68c8684e8 -->
<g id="node3" class="node">
<title>dir_33f5e7db3cf9e784015fa8b68c8684e8</title>
<g id="a_node3"><a xlink:href="dir_33f5e7db3cf9e784015fa8b68c8684e8.html" target="_top" xlink:title="generic">
<polygon fill="none" stroke="#7f7f7f" points="78,-36 24,-36 24,0 78,0 78,-36"/>
<text text-anchor="middle" x="51" y="-15.5" font-family="Helvetica,sans-Serif" font-size="10.00">generic</text>
</a>
</g>
</g>
<!-- dir_b78ac2ed9399f82d944e4688a0a8093c&#45;&gt;dir_33f5e7db3cf9e784015fa8b68c8684e8 -->
<g id="edge1" class="edge">
<title>dir_b78ac2ed9399f82d944e4688a0a8093c&#45;&gt;dir_33f5e7db3cf9e784015fa8b68c8684e8</title>
<path fill="none" stroke="black" d="M51,-71.7C51,-63.98 51,-54.71 51,-46.11"/>
<polygon fill="black" stroke="black" points="54.5,-46.1 51,-36.1 47.5,-46.1 54.5,-46.1"/>
<g id="a_edge1&#45;headlabel"><a xlink:href="dir_000016_000003.html" target="_top" xlink:title="1">
<text text-anchor="middle" x="57.34" y="-47.2" font-family="Helvetica,sans-Serif" font-size="10.00">1</text>
</a>
</g>
</g>
</g>
</svg>
