<?xml version="1.0" encoding="UTF-8" standalone="no"?>
<!DOCTYPE svg PUBLIC "-//W3C//DTD SVG 1.1//EN"
 "http://www.w3.org/Graphics/SVG/1.1/DTD/svg11.dtd">
<!-- Generated by graphviz version 7.0.5 (20221223.1930)
 -->
<!-- Title: src/kernel/arch Pages: 1 -->
<svg width="262pt" height="149pt"
 viewBox="0.00 0.00 262.00 149.00" xmlns="http://www.w3.org/2000/svg" xmlns:xlink="http://www.w3.org/1999/xlink">
<g id="graph0" class="graph" transform="scale(1 1) rotate(0) translate(4 145)">
<title>src/kernel/arch</title>
<g id="clust1" class="cluster">
<title>clusterdir_cbd7f246bdf7dc0a50281a272327e6ed</title>
<g id="a_clust1"><a xlink:href="dir_cbd7f246bdf7dc0a50281a272327e6ed.html" target="_top" xlink:title="kernel">
<polygon fill="#e1d8d2" stroke="#7f7f7f" stroke-dasharray="5,2" points="8,-8 8,-133 246,-133 246,-8 8,-8"/>
<text text-anchor="middle" x="127" y="-121" font-family="Helvetica,sans-Serif" font-size="10.00">kernel</text>
</a>
</g>
</g>
<g id="clust2" class="cluster">
<title>clusterdir_76e3dd4d2fa719e8d3b096e9aa563982</title>
<g id="a_clust2"><a xlink:href="dir_76e3dd4d2fa719e8d3b096e9aa563982.html" target="_top">
<polygon fill="#e1d8d2" stroke="#404040" stroke-width="2" points="16,-16 16,-106 238,-106 238,-16 16,-16"/>
</a>
</g>
</g>
<!-- dir_76e3dd4d2fa719e8d3b096e9aa563982 -->
<g id="node1" class="node">
<title>dir_76e3dd4d2fa719e8d3b096e9aa563982</title>
<text text-anchor="middle" x="212" y="-86" font-family="Helvetica,sans-Serif" font-size="10.00">arch</text>
</g>
<!-- dir_0acad8e611f5f3679e26f7f6ddf45d1c -->
<g id="node2" class="node">
<title>dir_0acad8e611f5f3679e26f7f6ddf45d1c</title>
<g id="a_node2"><a xlink:href="dir_0acad8e611f5f3679e26f7f6ddf45d1c.html" target="_top" xlink:title="aarch64">
<polygon fill="#7b6152" stroke="#404040" points="176.5,-98 125.5,-98 125.5,-79 176.5,-79 176.5,-98"/>
<text text-anchor="middle" x="151" y="-86" font-family="Helvetica,sans-Serif" font-size="10.00">aarch64</text>
</a>
</g>
</g>
<!-- dir_43af151a16def40383bd5358501d5df1 -->
<g id="node4" class="node">
<title>dir_43af151a16def40383bd5358501d5df1</title>
<g id="a_node4"><a xlink:href="dir_43af151a16def40383bd5358501d5df1.html" target="_top" xlink:title="generic">
<polygon fill="#7b6152" stroke="#404040" points="115,-43 67,-43 67,-24 115,-24 115,-43"/>
<text text-anchor="middle" x="91" y="-31" font-family="Helvetica,sans-Serif" font-size="10.00">generic</text>
</a>
</g>
</g>
<!-- dir_0acad8e611f5f3679e26f7f6ddf45d1c&#45;&gt;dir_43af151a16def40383bd5358501d5df1 -->
<g id="edge1" class="edge">
<title>dir_0acad8e611f5f3679e26f7f6ddf45d1c&#45;&gt;dir_43af151a16def40383bd5358501d5df1</title>
<path fill="none" stroke="#63b8ff" d="M140.82,-78.51C132.24,-70.93 119.73,-59.88 109.4,-50.75"/>
<polygon fill="#63b8ff" stroke="#63b8ff" points="111.97,-48.36 102.16,-44.36 107.34,-53.6 111.97,-48.36"/>
<g id="a_edge1&#45;headlabel"><a xlink:href="dir_000002_000008.html" target="_top" xlink:title="1">
<text text-anchor="middle" x="115.41" y="-45.11" font-family="Helvetica,sans-Serif" font-size="10.00" fill="#63b8ff">1</text>
</a>
</g>
</g>
<!-- dir_913d6bb9266d437cf70a495716d4fa63 -->
<g id="node3" class="node">
<title>dir_913d6bb9266d437cf70a495716d4fa63</title>
<g id="a_node3"><a xlink:href="dir_913d6bb9266d437cf70a495716d4fa63.html" target="_top" xlink:title="arm">
<polygon fill="#7b6152" stroke="#404040" points="107.5,-98 74.5,-98 74.5,-79 107.5,-79 107.5,-98"/>
<text text-anchor="middle" x="91" y="-86" font-family="Helvetica,sans-Serif" font-size="10.00">arm</text>
</a>
</g>
</g>
<!-- dir_913d6bb9266d437cf70a495716d4fa63&#45;&gt;dir_43af151a16def40383bd5358501d5df1 -->
<g id="edge2" class="edge">
<title>dir_913d6bb9266d437cf70a495716d4fa63&#45;&gt;dir_43af151a16def40383bd5358501d5df1</title>
<path fill="none" stroke="#63b8ff" d="M91,-78.75C91,-72.27 91,-63.16 91,-54.9"/>
<polygon fill="#63b8ff" stroke="#63b8ff" points="94.5,-54.96 91,-44.96 87.5,-54.96 94.5,-54.96"/>
<g id="a_edge2&#45;headlabel"><a xlink:href="dir_000004_000008.html" target="_top" xlink:title="1">
<text text-anchor="middle" x="97.34" y="-54.54" font-family="Helvetica,sans-Serif" font-size="10.00" fill="#63b8ff">1</text>
</a>
</g>
</g>
<!-- dir_b39494742a4b289002c932da1c6725ae -->
<g id="node5" class="node">
<title>dir_b39494742a4b289002c932da1c6725ae</title>
<g id="a_node5"><a xlink:href="dir_b39494742a4b289002c932da1c6725ae.html" target="_top" xlink:title="x86">
<polygon fill="#7b6152" stroke="#404040" points="56,-98 24,-98 24,-79 56,-79 56,-98"/>
<text text-anchor="middle" x="40" y="-86" font-family="Helvetica,sans-Serif" font-size="10.00">x86</text>
</a>
</g>
</g>
<!-- dir_b39494742a4b289002c932da1c6725ae&#45;&gt;dir_43af151a16def40383bd5358501d5df1 -->
<g id="edge3" class="edge">
<title>dir_b39494742a4b289002c932da1c6725ae&#45;&gt;dir_43af151a16def40383bd5358501d5df1</title>
<path fill="none" stroke="#63b8ff" d="M48.42,-78.75C55.47,-71.43 65.73,-60.76 74.41,-51.74"/>
<polygon fill="#63b8ff" stroke="#63b8ff" points="76.93,-54.17 81.35,-44.53 71.89,-49.31 76.93,-54.17"/>
<g id="a_edge3&#45;headlabel"><a xlink:href="dir_000028_000008.html" target="_top" xlink:title="2">
<text text-anchor="middle" x="77.54" y="-55.13" font-family="Helvetica,sans-Serif" font-size="10.00" fill="#63b8ff">2</text>
</a>
</g>
</g>
</g>
</svg>
