<?xml version="1.0" encoding="UTF-8" standalone="no"?>
<!DOCTYPE svg PUBLIC "-//W3C//DTD SVG 1.1//EN"
 "http://www.w3.org/Graphics/SVG/1.1/DTD/svg11.dtd">
<!-- Generated by graphviz version 3.0.0 (20220413.0242)
 -->
<!-- Title: arch Pages: 1 -->
<svg width="436pt" height="148pt"
 viewBox="0.00 0.00 436.00 148.00" xmlns="http://www.w3.org/2000/svg" xmlns:xlink="http://www.w3.org/1999/xlink">
<g id="graph0" class="graph" transform="scale(1 1) rotate(0) translate(4 144)">
<title>arch</title>
<polygon fill="white" stroke="transparent" points="-4,4 -4,-144 432,-144 432,4 -4,4"/>
<g id="clust1" class="cluster">
<title>clusterdir_ea9599923402ca8ab47fc3e495999dea</title>
<g id="a_clust1"><a xlink:href="dir_ea9599923402ca8ab47fc3e495999dea.html" target="_top">
<polygon fill="#e1d8d2" stroke="#404040" stroke-width="2" points="8,-8 8,-132 366,-132 366,-8 8,-8"/>
</a>
</g>
</g>
<!-- dir_ea9599923402ca8ab47fc3e495999dea -->
<g id="node1" class="node">
<title>dir_ea9599923402ca8ab47fc3e495999dea</title>
<text text-anchor="middle" x="331" y="-103.5" font-family="Helvetica,sans-Serif" font-size="10.00">arch</text>
</g>
<!-- dir_694d2f0f7c2f8f2d0c337c3856310a6d -->
<g id="node2" class="node">
<title>dir_694d2f0f7c2f8f2d0c337c3856310a6d</title>
<g id="a_node2"><a xlink:href="dir_694d2f0f7c2f8f2d0c337c3856310a6d.html" target="_top" xlink:title="aarch64">
<polygon fill="#7b6152" stroke="#404040" points="142,-124 88,-124 88,-88 142,-88 142,-124"/>
<text text-anchor="middle" x="115" y="-103.5" font-family="Helvetica,sans-Serif" font-size="10.00">aarch64</text>
</a>
</g>
</g>
<!-- dir_33f5e7db3cf9e784015fa8b68c8684e8 -->
<g id="node4" class="node">
<title>dir_33f5e7db3cf9e784015fa8b68c8684e8</title>
<g id="a_node4"><a xlink:href="dir_33f5e7db3cf9e784015fa8b68c8684e8.html" target="_top" xlink:title="generic">
<polygon fill="#7b6152" stroke="#404040" points="160,-52 106,-52 106,-16 160,-16 160,-52"/>
<text text-anchor="middle" x="133" y="-31.5" font-family="Helvetica,sans-Serif" font-size="10.00">generic</text>
</a>
</g>
</g>
<!-- dir_694d2f0f7c2f8f2d0c337c3856310a6d&#45;&gt;dir_33f5e7db3cf9e784015fa8b68c8684e8 -->
<g id="edge1" class="edge">
<title>dir_694d2f0f7c2f8f2d0c337c3856310a6d&#45;&gt;dir_33f5e7db3cf9e784015fa8b68c8684e8</title>
<path fill="none" stroke="black" d="M119.45,-87.7C121.45,-79.9 123.87,-70.51 126.1,-61.83"/>
<polygon fill="black" stroke="black" points="129.5,-62.66 128.6,-52.1 122.72,-60.92 129.5,-62.66"/>
<g id="a_edge1&#45;headlabel"><a xlink:href="dir_000000_000003.html" target="_top" xlink:title="1">
<text text-anchor="middle" x="131.36" y="-64.35" font-family="Helvetica,sans-Serif" font-size="10.00">1</text>
</a>
</g>
</g>
<!-- dir_9e929c73feaf15d3695ce4c76b483065 -->
<g id="node3" class="node">
<title>dir_9e929c73feaf15d3695ce4c76b483065</title>
<g id="a_node3"><a xlink:href="dir_9e929c73feaf15d3695ce4c76b483065.html" target="_top" xlink:title="arm">
<polygon fill="#7b6152" stroke="#404040" points="70,-124 16,-124 16,-88 70,-88 70,-124"/>
<text text-anchor="middle" x="43" y="-103.5" font-family="Helvetica,sans-Serif" font-size="10.00">arm</text>
</a>
</g>
</g>
<!-- dir_9e929c73feaf15d3695ce4c76b483065&#45;&gt;dir_33f5e7db3cf9e784015fa8b68c8684e8 -->
<g id="edge2" class="edge">
<title>dir_9e929c73feaf15d3695ce4c76b483065&#45;&gt;dir_33f5e7db3cf9e784015fa8b68c8684e8</title>
<path fill="none" stroke="black" d="M65.25,-87.7C76.58,-78.88 90.53,-68.03 102.82,-58.47"/>
<polygon fill="black" stroke="black" points="105.26,-61.01 111.01,-52.1 100.97,-55.48 105.26,-61.01"/>
<g id="a_edge2&#45;headlabel"><a xlink:href="dir_000002_000003.html" target="_top" xlink:title="1">
<text text-anchor="middle" x="104.17" y="-62.95" font-family="Helvetica,sans-Serif" font-size="10.00">1</text>
</a>
</g>
</g>
<!-- dir_80d47e2932eea2b79268d8febb03a46f -->
<g id="node5" class="node">
<title>dir_80d47e2932eea2b79268d8febb03a46f</title>
<g id="a_node5"><a xlink:href="dir_80d47e2932eea2b79268d8febb03a46f.html" target="_top" xlink:title="i686">
<polygon fill="#7b6152" stroke="#404040" points="214,-124 160,-124 160,-88 214,-88 214,-124"/>
<text text-anchor="middle" x="187" y="-103.5" font-family="Helvetica,sans-Serif" font-size="10.00">i686</text>
</a>
</g>
</g>
<!-- dir_80d47e2932eea2b79268d8febb03a46f&#45;&gt;dir_33f5e7db3cf9e784015fa8b68c8684e8 -->
<g id="edge3" class="edge">
<title>dir_80d47e2932eea2b79268d8febb03a46f&#45;&gt;dir_33f5e7db3cf9e784015fa8b68c8684e8</title>
<path fill="none" stroke="black" d="M173.65,-87.7C167.24,-79.39 159.44,-69.28 152.39,-60.14"/>
<polygon fill="black" stroke="black" points="155.07,-57.88 146.19,-52.1 149.53,-62.16 155.07,-57.88"/>
<g id="a_edge3&#45;headlabel"><a xlink:href="dir_000004_000003.html" target="_top" xlink:title="2">
<text text-anchor="middle" x="159.52" y="-56.5" font-family="Helvetica,sans-Serif" font-size="10.00">2</text>
</a>
</g>
</g>
<!-- dir_c21774f8bc9f0de15163573e5f5fa2b5 -->
<g id="node6" class="node">
<title>dir_c21774f8bc9f0de15163573e5f5fa2b5</title>
<g id="a_node6"><a xlink:href="dir_c21774f8bc9f0de15163573e5f5fa2b5.html" target="_top" xlink:title="x86">
<polygon fill="#7b6152" stroke="#404040" points="268,-52 214,-52 214,-16 268,-16 268,-52"/>
<text text-anchor="middle" x="241" y="-31.5" font-family="Helvetica,sans-Serif" font-size="10.00">x86</text>
</a>
</g>
</g>
<!-- dir_80d47e2932eea2b79268d8febb03a46f&#45;&gt;dir_c21774f8bc9f0de15163573e5f5fa2b5 -->
<g id="edge5" class="edge">
<title>dir_80d47e2932eea2b79268d8febb03a46f&#45;&gt;dir_c21774f8bc9f0de15163573e5f5fa2b5</title>
<path fill="none" stroke="black" d="M200.35,-87.7C206.76,-79.39 214.56,-69.28 221.61,-60.14"/>
<polygon fill="black" stroke="black" points="224.47,-62.16 227.81,-52.1 218.93,-57.88 224.47,-62.16"/>
<g id="a_edge5&#45;headlabel"><a xlink:href="dir_000004_000019.html" target="_top" xlink:title="2">
<text text-anchor="middle" x="224.52" y="-64.24" font-family="Helvetica,sans-Serif" font-size="10.00">2</text>
</a>
</g>
</g>
<!-- dir_373dbc578909e855ad4333204b592304 -->
<g id="node8" class="node">
<title>dir_373dbc578909e855ad4333204b592304</title>
<g id="a_node8"><a xlink:href="dir_373dbc578909e855ad4333204b592304.html" target="_top" xlink:title="libk">
<polygon fill="none" stroke="red" points="428,-52 374,-52 374,-16 428,-16 428,-52"/>
<text text-anchor="middle" x="401" y="-31.5" font-family="Helvetica,sans-Serif" font-size="10.00">libk</text>
</a>
</g>
</g>
<!-- dir_80d47e2932eea2b79268d8febb03a46f&#45;&gt;dir_373dbc578909e855ad4333204b592304 -->
<g id="edge4" class="edge">
<title>dir_80d47e2932eea2b79268d8febb03a46f&#45;&gt;dir_373dbc578909e855ad4333204b592304</title>
<path fill="none" stroke="black" d="M214.28,-91.42C217.19,-90.19 220.13,-89.02 223,-88 283.3,-66.62 305.17,-75.4 364.38,-53.97"/>
<polygon fill="black" stroke="black" points="365.68,-57.22 373.8,-50.42 363.21,-50.67 365.68,-57.22"/>
<g id="a_edge4&#45;headlabel"><a xlink:href="dir_000004_000012.html" target="_top" xlink:title="5">
<text text-anchor="middle" x="363.31" y="-58.64" font-family="Helvetica,sans-Serif" font-size="10.00">5</text>
</a>
</g>
</g>
<!-- dir_e1dc58d3d3e690ae6f284471dd154692 -->
<g id="node7" class="node">
<title>dir_e1dc58d3d3e690ae6f284471dd154692</title>
<g id="a_node7"><a xlink:href="dir_e1dc58d3d3e690ae6f284471dd154692.html" target="_top" xlink:title="x86_64">
<polygon fill="#7b6152" stroke="#404040" points="286,-124 232,-124 232,-88 286,-88 286,-124"/>
<text text-anchor="middle" x="259" y="-103.5" font-family="Helvetica,sans-Serif" font-size="10.00">x86_64</text>
</a>
</g>
</g>
<!-- dir_e1dc58d3d3e690ae6f284471dd154692&#45;&gt;dir_33f5e7db3cf9e784015fa8b68c8684e8 -->
<g id="edge6" class="edge">
<title>dir_e1dc58d3d3e690ae6f284471dd154692&#45;&gt;dir_33f5e7db3cf9e784015fa8b68c8684e8</title>
<path fill="none" stroke="black" d="M231.97,-89.98C213.66,-79.81 189.25,-66.25 169.26,-55.14"/>
<polygon fill="black" stroke="black" points="170.86,-52.03 160.42,-50.23 167.46,-58.15 170.86,-52.03"/>
<g id="a_edge6&#45;headlabel"><a xlink:href="dir_000020_000003.html" target="_top" xlink:title="2">
<text text-anchor="middle" x="175.38" y="-48.79" font-family="Helvetica,sans-Serif" font-size="10.00">2</text>
</a>
</g>
</g>
<!-- dir_e1dc58d3d3e690ae6f284471dd154692&#45;&gt;dir_c21774f8bc9f0de15163573e5f5fa2b5 -->
<g id="edge8" class="edge">
<title>dir_e1dc58d3d3e690ae6f284471dd154692&#45;&gt;dir_c21774f8bc9f0de15163573e5f5fa2b5</title>
<path fill="none" stroke="black" d="M254.55,-87.7C252.55,-79.9 250.13,-70.51 247.9,-61.83"/>
<polygon fill="black" stroke="black" points="251.28,-60.92 245.4,-52.1 244.5,-62.66 251.28,-60.92"/>
<g id="a_edge8&#45;headlabel"><a xlink:href="dir_000020_000019.html" target="_top" xlink:title="2">
<text text-anchor="middle" x="254.92" y="-61.19" font-family="Helvetica,sans-Serif" font-size="10.00">2</text>
</a>
</g>
</g>
<!-- dir_e1dc58d3d3e690ae6f284471dd154692&#45;&gt;dir_373dbc578909e855ad4333204b592304 -->
<g id="edge7" class="edge">
<title>dir_e1dc58d3d3e690ae6f284471dd154692&#45;&gt;dir_373dbc578909e855ad4333204b592304</title>
<path fill="none" stroke="black" d="M286.23,-92.1C311.13,-80.28 346.45,-63.49 364.82,-54.49"/>
<polygon fill="black" stroke="black" points="366.61,-57.52 374,-49.92 363.48,-51.25 366.61,-57.52"/>
<g id="a_edge7&#45;headlabel"><a xlink:href="dir_000020_000012.html" target="_top" xlink:title="1">
<text text-anchor="middle" x="364.65" y="-59.16" font-family="Helvetica,sans-Serif" font-size="10.00">1</text>
</a>
</g>
</g>
</g>
</svg>
