<?xml version="1.0" encoding="UTF-8" standalone="no"?>
<!DOCTYPE svg PUBLIC "-//W3C//DTD SVG 1.1//EN"
 "http://www.w3.org/Graphics/SVG/1.1/DTD/svg11.dtd">
<!-- Generated by graphviz version 3.0.0 (20220413.0242)
 -->
<!-- Title: arch/x86_64 Pages: 1 -->
<svg width="236pt" height="175pt"
 viewBox="0.00 0.00 236.00 175.00" xmlns="http://www.w3.org/2000/svg" xmlns:xlink="http://www.w3.org/1999/xlink">
<g id="graph0" class="graph" transform="scale(1 1) rotate(0) translate(4 171)">
<title>arch/x86_64</title>
<polygon fill="white" stroke="transparent" points="-4,4 -4,-171 232,-171 232,4 -4,4"/>
<g id="clust1" class="cluster">
<title>clusterdir_ea9599923402ca8ab47fc3e495999dea</title>
<g id="a_clust1"><a xlink:href="dir_ea9599923402ca8ab47fc3e495999dea.html" target="_top" xlink:title="arch">
<polygon fill="#e1d8d2" stroke="#404040" stroke-dasharray="5,2" points="8,-8 8,-159 166,-159 166,-8 8,-8"/>
<text text-anchor="middle" x="87" y="-147" font-family="Helvetica,sans-Serif" font-size="10.00">arch</text>
</a>
</g>
</g>
<g id="clust2" class="cluster">
<title>clusterdir_e1dc58d3d3e690ae6f284471dd154692</title>
<g id="a_clust2"><a xlink:href="dir_e1dc58d3d3e690ae6f284471dd154692.html" target="_top">
<polygon fill="#e1d8d2" stroke="#404040" stroke-width="2" points="16,-80 16,-132 158,-132 158,-80 16,-80"/>
</a>
</g>
</g>
<!-- dir_33f5e7db3cf9e784015fa8b68c8684e8 -->
<g id="node1" class="node">
<title>dir_33f5e7db3cf9e784015fa8b68c8684e8</title>
<g id="a_node1"><a xlink:href="dir_33f5e7db3cf9e784015fa8b68c8684e8.html" target="_top" xlink:title="generic">
<polygon fill="#7b6152" stroke="#404040" points="78,-52 24,-52 24,-16 78,-16 78,-52"/>
<text text-anchor="middle" x="51" y="-31.5" font-family="Helvetica,sans-Serif" font-size="10.00">generic</text>
</a>
</g>
</g>
<!-- dir_c21774f8bc9f0de15163573e5f5fa2b5 -->
<g id="node2" class="node">
<title>dir_c21774f8bc9f0de15163573e5f5fa2b5</title>
<g id="a_node2"><a xlink:href="dir_c21774f8bc9f0de15163573e5f5fa2b5.html" target="_top" xlink:title="x86">
<polygon fill="#7b6152" stroke="#404040" points="150,-52 96,-52 96,-16 150,-16 150,-52"/>
<text text-anchor="middle" x="123" y="-31.5" font-family="Helvetica,sans-Serif" font-size="10.00">x86</text>
</a>
</g>
</g>
<!-- dir_e1dc58d3d3e690ae6f284471dd154692 -->
<g id="node3" class="node">
<title>dir_e1dc58d3d3e690ae6f284471dd154692</title>
<text text-anchor="middle" x="123" y="-103.5" font-family="Helvetica,sans-Serif" font-size="10.00">x86_64</text>
</g>
<!-- dir_e1dc58d3d3e690ae6f284471dd154692&#45;&gt;dir_33f5e7db3cf9e784015fa8b68c8684e8 -->
<g id="edge1" class="edge">
<title>dir_e1dc58d3d3e690ae6f284471dd154692&#45;&gt;dir_33f5e7db3cf9e784015fa8b68c8684e8</title>
<path fill="none" stroke="black" d="M105.2,-87.7C96.4,-79.14 85.62,-68.66 76,-59.3"/>
<polygon fill="black" stroke="black" points="78.2,-56.57 68.59,-52.1 73.32,-61.58 78.2,-56.57"/>
<g id="a_edge1&#45;headlabel"><a xlink:href="dir_000020_000003.html" target="_top" xlink:title="2">
<text text-anchor="middle" x="82.76" y="-54.54" font-family="Helvetica,sans-Serif" font-size="10.00">2</text>
</a>
</g>
</g>
<!-- dir_e1dc58d3d3e690ae6f284471dd154692&#45;&gt;dir_c21774f8bc9f0de15163573e5f5fa2b5 -->
<g id="edge3" class="edge">
<title>dir_e1dc58d3d3e690ae6f284471dd154692&#45;&gt;dir_c21774f8bc9f0de15163573e5f5fa2b5</title>
<path fill="none" stroke="black" d="M123,-87.7C123,-79.98 123,-70.71 123,-62.11"/>
<polygon fill="black" stroke="black" points="126.5,-62.1 123,-52.1 119.5,-62.1 126.5,-62.1"/>
<g id="a_edge3&#45;headlabel"><a xlink:href="dir_000020_000019.html" target="_top" xlink:title="2">
<text text-anchor="middle" x="129.34" y="-63.2" font-family="Helvetica,sans-Serif" font-size="10.00">2</text>
</a>
</g>
</g>
<!-- dir_373dbc578909e855ad4333204b592304 -->
<g id="node5" class="node">
<title>dir_373dbc578909e855ad4333204b592304</title>
<g id="a_node5"><a xlink:href="dir_373dbc578909e855ad4333204b592304.html" target="_top" xlink:title="libk">
<polygon fill="none" stroke="red" points="228,-52 174,-52 174,-16 228,-16 228,-52"/>
<text text-anchor="middle" x="201" y="-31.5" font-family="Helvetica,sans-Serif" font-size="10.00">libk</text>
</a>
</g>
</g>
<!-- dir_e1dc58d3d3e690ae6f284471dd154692&#45;&gt;dir_373dbc578909e855ad4333204b592304 -->
<g id="edge2" class="edge">
<title>dir_e1dc58d3d3e690ae6f284471dd154692&#45;&gt;dir_373dbc578909e855ad4333204b592304</title>
<path fill="none" stroke="black" d="M142.28,-87.7C151.92,-79.05 163.73,-68.45 174.23,-59.03"/>
<polygon fill="black" stroke="black" points="176.84,-61.39 181.94,-52.1 172.16,-56.18 176.84,-61.39"/>
<g id="a_edge2&#45;headlabel"><a xlink:href="dir_000020_000012.html" target="_top" xlink:title="1">
<text text-anchor="middle" x="176.06" y="-63.4" font-family="Helvetica,sans-Serif" font-size="10.00">1</text>
</a>
</g>
</g>
<!-- dir_607129271d960798f61db932c43ebb76 -->
<g id="node4" class="node">
<title>dir_607129271d960798f61db932c43ebb76</title>
<g id="a_node4"><a xlink:href="dir_607129271d960798f61db932c43ebb76.html" target="_top" xlink:title="include">
<polygon fill="#7b6152" stroke="#404040" points="78,-124 24,-124 24,-88 78,-88 78,-124"/>
<text text-anchor="middle" x="51" y="-103.5" font-family="Helvetica,sans-Serif" font-size="10.00">include</text>
</a>
</g>
</g>
<!-- dir_607129271d960798f61db932c43ebb76&#45;&gt;dir_33f5e7db3cf9e784015fa8b68c8684e8 -->
<g id="edge4" class="edge">
<title>dir_607129271d960798f61db932c43ebb76&#45;&gt;dir_33f5e7db3cf9e784015fa8b68c8684e8</title>
<path fill="none" stroke="black" d="M51,-87.7C51,-79.98 51,-70.71 51,-62.11"/>
<polygon fill="black" stroke="black" points="54.5,-62.1 51,-52.1 47.5,-62.1 54.5,-62.1"/>
<g id="a_edge4&#45;headlabel"><a xlink:href="dir_000008_000003.html" target="_top" xlink:title="1">
<text text-anchor="middle" x="57.34" y="-63.2" font-family="Helvetica,sans-Serif" font-size="10.00">1</text>
</a>
</g>
</g>
</g>
</svg>
