<?xml version="1.0" encoding="UTF-8" standalone="no"?>
<!DOCTYPE svg PUBLIC "-//W3C//DTD SVG 1.1//EN"
 "http://www.w3.org/Graphics/SVG/1.1/DTD/svg11.dtd">
<!-- Generated by graphviz version 9.0.0 (20230911.1827)
 -->
<!-- Title: multiboot Pages: 1 -->
<svg width="256pt" height="105pt"
 viewBox="0.00 0.00 255.62 105.00" xmlns="http://www.w3.org/2000/svg" xmlns:xlink="http://www.w3.org/1999/xlink">
<g id="graph0" class="graph" transform="scale(1 1) rotate(0) translate(4 101)">
<title>multiboot</title>
<!-- Node1 -->
<g id="Node000001" class="node">
<title>Node1</title>
<g id="a_Node000001"><a xlink:title=" ">
<polygon fill="#999999" stroke="#666666" points="154.38,-19.25 98.62,-19.25 98.62,0 154.38,0 154.38,-19.25"/>
<text text-anchor="middle" x="126.5" y="-5.75" font-family="Helvetica,sans-Serif" font-size="10.00">multiboot</text>
</a>
</g>
</g>
<!-- Node2 -->
<g id="Node000002" class="node">
<title>Node2</title>
<g id="a_Node000002"><a xlink:href="../../d3/d91/structmultiboot__aout__symbole__table.html" target="_top" xlink:title=" ">
<polygon fill="white" stroke="#666666" points="121,-97 0,-97 0,-66.5 121,-66.5 121,-97"/>
<text text-anchor="start" x="8" y="-83.5" font-family="Helvetica,sans-Serif" font-size="10.00">multiboot_aout_symbole</text>
<text text-anchor="middle" x="60.5" y="-72.25" font-family="Helvetica,sans-Serif" font-size="10.00">_table</text>
</a>
</g>
</g>
<!-- Node2&#45;&gt;Node1 -->
<g id="edge1_Node000001_Node000002" class="edge">
<title>Node2&#45;&gt;Node1</title>
<g id="a_edge1_Node000001_Node000002"><a xlink:title=" ">
<path fill="none" stroke="#9a32cd" stroke-dasharray="5,2" d="M81.88,-58.04C94.28,-44.86 109.2,-29.01 118.26,-19.38"/>
<polygon fill="#9a32cd" stroke="#9a32cd" points="79.52,-55.44 75.21,-65.12 84.61,-60.23 79.52,-55.44"/>
</a>
</g>
<text text-anchor="middle" x="123.62" y="-39" font-family="Helvetica,sans-Serif" font-size="10.00" fill="grey"> aout_sym</text>
</g>
<!-- Node3 -->
<g id="Node000003" class="node">
<title>Node3</title>
<g id="a_Node000003"><a xlink:href="../../da/d69/structmultiboot__elf__section__header__table.html" target="_top" xlink:title=" ">
<polygon fill="white" stroke="#666666" points="247.62,-97 139.38,-97 139.38,-66.5 247.62,-66.5 247.62,-97"/>
<text text-anchor="start" x="147.38" y="-83.5" font-family="Helvetica,sans-Serif" font-size="10.00">multiboot_elf_section</text>
<text text-anchor="middle" x="193.5" y="-72.25" font-family="Helvetica,sans-Serif" font-size="10.00">_header_table</text>
</a>
</g>
</g>
<!-- Node3&#45;&gt;Node1 -->
<g id="edge2_Node000001_Node000003" class="edge">
<title>Node3&#45;&gt;Node1</title>
<g id="a_edge2_Node000001_Node000003"><a xlink:title=" ">
<path fill="none" stroke="#9a32cd" stroke-dasharray="5,2" d="M171.8,-58.04C159.21,-44.86 144.06,-29.01 134.87,-19.38"/>
<polygon fill="#9a32cd" stroke="#9a32cd" points="169.13,-60.31 178.57,-65.13 174.19,-55.48 169.13,-60.31"/>
</a>
</g>
<text text-anchor="middle" x="178.38" y="-39" font-family="Helvetica,sans-Serif" font-size="10.00" fill="grey"> elf_sec</text>
</g>
</g>
</svg>
