<?xml version="1.0" encoding="UTF-8" standalone="no"?>
<!DOCTYPE svg PUBLIC "-//W3C//DTD SVG 1.1//EN"
 "http://www.w3.org/Graphics/SVG/1.1/DTD/svg11.dtd">
<!-- Generated by graphviz version 9.0.0 (20230911.1827)
 -->
<!-- Title: src/kernel/arch/x86/32/arch.c Pages: 1 -->
<svg width="602pt" height="94pt"
 viewBox="0.00 0.00 602.12 93.75" xmlns="http://www.w3.org/2000/svg" xmlns:xlink="http://www.w3.org/1999/xlink">
<g id="graph0" class="graph" transform="scale(1 1) rotate(0) translate(4 89.75)">
<title>src/kernel/arch/x86/32/arch.c</title>
<!-- Node1 -->
<g id="Node000001" class="node">
<title>Node1</title>
<g id="a_Node000001"><a xlink:title=" ">
<polygon fill="#999999" stroke="#666666" points="412.25,-85.75 313.75,-85.75 313.75,-55.25 412.25,-55.25 412.25,-85.75"/>
<text text-anchor="start" x="321.75" y="-72.25" font-family="Helvetica,sans-Serif" font-size="10.00">src/kernel/arch/x86</text>
<text text-anchor="middle" x="363" y="-61" font-family="Helvetica,sans-Serif" font-size="10.00">/32/arch.c</text>
</a>
</g>
</g>
<!-- Node2 -->
<g id="Node000002" class="node">
<title>Node2</title>
<g id="a_Node000002"><a xlink:title=" ">
<polygon fill="#e0e0e0" stroke="#999999" points="82,-19.25 0,-19.25 0,0 82,0 82,-19.25"/>
<text text-anchor="middle" x="41" y="-5.75" font-family="Helvetica,sans-Serif" font-size="10.00">machine/arch.h</text>
</a>
</g>
</g>
<!-- Node1&#45;&gt;Node2 -->
<g id="edge1_Node000001_Node000002" class="edge">
<title>Node1&#45;&gt;Node2</title>
<g id="a_edge1_Node000001_Node000002"><a xlink:title=" ">
<path fill="none" stroke="#63b8ff" d="M313.39,-60.43C253.9,-49.55 154.59,-31.39 93.73,-20.27"/>
<polygon fill="#63b8ff" stroke="#63b8ff" points="94.42,-16.84 83.96,-18.48 93.17,-23.72 94.42,-16.84"/>
</a>
</g>
</g>
<!-- Node3 -->
<g id="Node000003" class="node">
<title>Node3</title>
<g id="a_Node000003"><a xlink:href="../../dd/da9/x86_2serial_8h.html" target="_top" xlink:title=" ">
<polygon fill="white" stroke="#666666" points="164.38,-19.25 99.62,-19.25 99.62,0 164.38,0 164.38,-19.25"/>
<text text-anchor="middle" x="132" y="-5.75" font-family="Helvetica,sans-Serif" font-size="10.00">x86/serial.h</text>
</a>
</g>
</g>
<!-- Node1&#45;&gt;Node3 -->
<g id="edge2_Node000001_Node000003" class="edge">
<title>Node1&#45;&gt;Node3</title>
<g id="a_edge2_Node000001_Node000003"><a xlink:title=" ">
<path fill="none" stroke="#63b8ff" d="M313.44,-56.87C272.54,-46.44 215.04,-31.79 175.81,-21.79"/>
<polygon fill="#63b8ff" stroke="#63b8ff" points="176.78,-18.43 166.22,-19.35 175.05,-25.21 176.78,-18.43"/>
</a>
</g>
</g>
<!-- Node4 -->
<g id="Node000004" class="node">
<title>Node4</title>
<g id="a_Node000004"><a xlink:href="../../df/d76/greeting_8h.html" target="_top" xlink:title=" ">
<polygon fill="white" stroke="#666666" points="258,-19.25 182,-19.25 182,0 258,0 258,-19.25"/>
<text text-anchor="middle" x="220" y="-5.75" font-family="Helvetica,sans-Serif" font-size="10.00">x86/greeting.h</text>
</a>
</g>
</g>
<!-- Node1&#45;&gt;Node4 -->
<g id="edge3_Node000001_Node000004" class="edge">
<title>Node1&#45;&gt;Node4</title>
<g id="a_edge3_Node000001_Node000004"><a xlink:title=" ">
<path fill="none" stroke="#63b8ff" d="M327.28,-54.8C304.35,-45.35 274.81,-33.19 252.53,-24.02"/>
<polygon fill="#63b8ff" stroke="#63b8ff" points="253.91,-20.8 243.33,-20.23 251.24,-27.27 253.91,-20.8"/>
</a>
</g>
</g>
<!-- Node5 -->
<g id="Node000005" class="node">
<title>Node5</title>
<g id="a_Node000005"><a xlink:title=" ">
<polygon fill="#e0e0e0" stroke="#999999" points="367.88,-19.25 276.12,-19.25 276.12,0 367.88,0 367.88,-19.25"/>
<text text-anchor="middle" x="322" y="-5.75" font-family="Helvetica,sans-Serif" font-size="10.00">generic/stivale2.h</text>
</a>
</g>
</g>
<!-- Node1&#45;&gt;Node5 -->
<g id="edge4_Node000001_Node000005" class="edge">
<title>Node1&#45;&gt;Node5</title>
<g id="a_edge4_Node000001_Node000005"><a xlink:title=" ">
<path fill="none" stroke="#63b8ff" d="M352.87,-54.95C347.4,-47.1 340.61,-37.35 334.79,-28.99"/>
<polygon fill="#63b8ff" stroke="#63b8ff" points="337.77,-27.15 329.19,-20.94 332.03,-31.15 337.77,-27.15"/>
</a>
</g>
</g>
<!-- Node6 -->
<g id="Node000006" class="node">
<title>Node6</title>
<g id="a_Node000006"><a xlink:href="../../d5/d4a/gdt_8h.html" target="_top" xlink:title=" ">
<polygon fill="white" stroke="#666666" points="422.5,-19.25 385.5,-19.25 385.5,0 422.5,0 422.5,-19.25"/>
<text text-anchor="middle" x="404" y="-5.75" font-family="Helvetica,sans-Serif" font-size="10.00">gdt.h</text>
</a>
</g>
</g>
<!-- Node1&#45;&gt;Node6 -->
<g id="edge5_Node000001_Node000006" class="edge">
<title>Node1&#45;&gt;Node6</title>
<g id="a_edge5_Node000001_Node000006"><a xlink:title=" ">
<path fill="none" stroke="#63b8ff" d="M373.13,-54.95C378.6,-47.1 385.39,-37.35 391.21,-28.99"/>
<polygon fill="#63b8ff" stroke="#63b8ff" points="393.97,-31.15 396.81,-20.94 388.23,-27.15 393.97,-31.15"/>
</a>
</g>
</g>
<!-- Node7 -->
<g id="Node000007" class="node">
<title>Node7</title>
<g id="a_Node000007"><a xlink:href="../../d4/d35/idt_8h.html" target="_top" xlink:title=" ">
<polygon fill="white" stroke="#666666" points="475,-19.25 441,-19.25 441,0 475,0 475,-19.25"/>
<text text-anchor="middle" x="458" y="-5.75" font-family="Helvetica,sans-Serif" font-size="10.00">idt.h</text>
</a>
</g>
</g>
<!-- Node1&#45;&gt;Node7 -->
<g id="edge6_Node000001_Node000007" class="edge">
<title>Node1&#45;&gt;Node7</title>
<g id="a_edge6_Node000001_Node000007"><a xlink:title=" ">
<path fill="none" stroke="#63b8ff" d="M386.48,-54.95C400.81,-46.07 419.09,-34.74 433.58,-25.76"/>
<polygon fill="#63b8ff" stroke="#63b8ff" points="435.41,-28.74 442.07,-20.5 431.72,-22.79 435.41,-28.74"/>
</a>
</g>
</g>
<!-- Node8 -->
<g id="Node000008" class="node">
<title>Node8</title>
<g id="a_Node000008"><a xlink:href="../../da/ddd/cpuid_8h.html" target="_top" xlink:title=" ">
<polygon fill="white" stroke="#666666" points="539.38,-19.25 492.62,-19.25 492.62,0 539.38,0 539.38,-19.25"/>
<text text-anchor="middle" x="516" y="-5.75" font-family="Helvetica,sans-Serif" font-size="10.00">cpuid.h</text>
</a>
</g>
</g>
<!-- Node1&#45;&gt;Node8 -->
<g id="edge7_Node000001_Node000008" class="edge">
<title>Node1&#45;&gt;Node8</title>
<g id="a_edge7_Node000001_Node000008"><a xlink:title=" ">
<path fill="none" stroke="#63b8ff" d="M401.21,-54.8C425.97,-45.27 457.93,-32.97 481.84,-23.77"/>
<polygon fill="#63b8ff" stroke="#63b8ff" points="483.05,-27.06 491.12,-20.2 480.53,-20.52 483.05,-27.06"/>
</a>
</g>
</g>
<!-- Node9 -->
<g id="Node000009" class="node">
<title>Node9</title>
<g id="a_Node000009"><a xlink:href="../../dc/d7a/pic_8h.html" target="_top" xlink:title=" ">
<polygon fill="white" stroke="#666666" points="594.12,-19.25 557.88,-19.25 557.88,0 594.12,0 594.12,-19.25"/>
<text text-anchor="middle" x="576" y="-5.75" font-family="Helvetica,sans-Serif" font-size="10.00">pic.h</text>
</a>
</g>
</g>
<!-- Node1&#45;&gt;Node9 -->
<g id="edge8_Node000001_Node000009" class="edge">
<title>Node1&#45;&gt;Node9</title>
<g id="a_edge8_Node000001_Node000009"><a xlink:title=" ">
<path fill="none" stroke="#63b8ff" d="M412.59,-56.51C447.44,-47.28 495.4,-34.35 546.66,-19.56"/>
<polygon fill="#63b8ff" stroke="#63b8ff" points="547.57,-22.94 556.2,-16.79 545.62,-16.22 547.57,-22.94"/>
</a>
</g>
</g>
</g>
</svg>
