<?xml version="1.0" encoding="UTF-8" standalone="no"?>
<!DOCTYPE svg PUBLIC "-//W3C//DTD SVG 1.1//EN"
 "http://www.w3.org/Graphics/SVG/1.1/DTD/svg11.dtd">
<!-- Generated by graphviz version 9.0.0 (20230911.1827)
 -->
<!-- Title: src/kernel/arch/aarch64/serial.c Pages: 1 -->
<svg width="146pt" height="94pt"
 viewBox="0.00 0.00 146.00 93.75" xmlns="http://www.w3.org/2000/svg" xmlns:xlink="http://www.w3.org/1999/xlink">
<g id="graph0" class="graph" transform="scale(1 1) rotate(0) translate(4 89.75)">
<title>src/kernel/arch/aarch64/serial.c</title>
<!-- Node1 -->
<g id="Node000001" class="node">
<title>Node1</title>
<g id="a_Node000001"><a xlink:title=" ">
<polygon fill="#999999" stroke="#666666" points="138,-85.75 20,-85.75 20,-55.25 138,-55.25 138,-85.75"/>
<text text-anchor="start" x="28" y="-72.25" font-family="Helvetica,sans-Serif" font-size="10.00">src/kernel/arch/aarch64</text>
<text text-anchor="middle" x="79" y="-61" font-family="Helvetica,sans-Serif" font-size="10.00">/serial.c</text>
</a>
</g>
</g>
<!-- Node2 -->
<g id="Node000002" class="node">
<title>Node2</title>
<g id="a_Node000002"><a xlink:title=" ">
<polygon fill="#e0e0e0" stroke="#999999" points="82,-19.25 0,-19.25 0,0 82,0 82,-19.25"/>
<text text-anchor="middle" x="41" y="-5.75" font-family="Helvetica,sans-Serif" font-size="10.00">machine/arch.h</text>
</a>
</g>
</g>
<!-- Node1&#45;&gt;Node2 -->
<g id="edge1_Node000001_Node000002" class="edge">
<title>Node1&#45;&gt;Node2</title>
<g id="a_edge1_Node000001_Node000002"><a xlink:title=" ">
<path fill="none" stroke="#63b8ff" d="M69.61,-54.95C64.6,-47.19 58.39,-37.56 53.03,-29.26"/>
<polygon fill="#63b8ff" stroke="#63b8ff" points="56.04,-27.48 47.68,-20.97 50.16,-31.27 56.04,-27.48"/>
</a>
</g>
</g>
<!-- Node3 -->
<g id="Node000003" class="node">
<title>Node3</title>
<g id="a_Node000003"><a xlink:href="../../de/da1/rpi_8h.html" target="_top" xlink:title=" ">
<polygon fill="white" stroke="#666666" points="134,-19.25 100,-19.25 100,0 134,0 134,-19.25"/>
<text text-anchor="middle" x="117" y="-5.75" font-family="Helvetica,sans-Serif" font-size="10.00">rpi.h</text>
</a>
</g>
</g>
<!-- Node1&#45;&gt;Node3 -->
<g id="edge2_Node000001_Node000003" class="edge">
<title>Node1&#45;&gt;Node3</title>
<g id="a_edge2_Node000001_Node000003"><a xlink:title=" ">
<path fill="none" stroke="#63b8ff" d="M88.39,-54.95C93.4,-47.19 99.61,-37.56 104.97,-29.26"/>
<polygon fill="#63b8ff" stroke="#63b8ff" points="107.84,-31.27 110.32,-20.97 101.96,-27.48 107.84,-31.27"/>
</a>
</g>
</g>
</g>
</svg>
