<?xml version="1.0" encoding="UTF-8" standalone="no"?>
<!DOCTYPE svg PUBLIC "-//W3C//DTD SVG 1.1//EN"
 "http://www.w3.org/Graphics/SVG/1.1/DTD/svg11.dtd">
<!-- Generated by graphviz version 2.44.0 ()
 -->
<!-- Title: arch/i686/arch.c Pages: 1 -->
<svg width="609pt" height="140pt"
 viewBox="0.00 0.00 609.00 140.00" xmlns="http://www.w3.org/2000/svg" xmlns:xlink="http://www.w3.org/1999/xlink">
<g id="graph0" class="graph" transform="scale(1 1) rotate(0) translate(4 136)">
<title>arch/i686/arch.c</title>
<polygon fill="white" stroke="transparent" points="-4,4 -4,-136 605,-136 605,4 -4,4"/>
<!-- Node1 -->
<g id="node1" class="node">
<title>Node1</title>
<g id="a_node1"><a xlink:title=" ">
<polygon fill="#bfbfbf" stroke="black" points="323.5,-112.5 323.5,-131.5 409.5,-131.5 409.5,-112.5 323.5,-112.5"/>
<text text-anchor="middle" x="366.5" y="-119.5" font-family="Helvetica,sans-Serif" font-size="10.00">arch/i686/arch.c</text>
</a>
</g>
</g>
<!-- Node2 -->
<g id="node2" class="node">
<title>Node2</title>
<g id="a_node2"><a xlink:title=" ">
<polygon fill="white" stroke="#bfbfbf" points="0,-56.5 0,-75.5 83,-75.5 83,-56.5 0,-56.5"/>
<text text-anchor="middle" x="41.5" y="-63.5" font-family="Helvetica,sans-Serif" font-size="10.00">machine/arch.h</text>
</a>
</g>
</g>
<!-- Node1&#45;&gt;Node2 -->
<g id="edge1" class="edge">
<title>Node1&#45;&gt;Node2</title>
<path fill="none" stroke="midnightblue" d="M323.29,-114.07C271.28,-105.68 181.01,-91.02 93.36,-76.13"/>
<polygon fill="midnightblue" stroke="midnightblue" points="93.69,-72.64 83.24,-74.41 92.51,-79.54 93.69,-72.64"/>
</g>
<!-- Node3 -->
<g id="node3" class="node">
<title>Node3</title>
<g id="a_node3"><a xlink:href="../../dd/da9/x86_2serial_8h.html" target="_top" xlink:title=" ">
<polygon fill="white" stroke="black" points="101,-56.5 101,-75.5 166,-75.5 166,-56.5 101,-56.5"/>
<text text-anchor="middle" x="133.5" y="-63.5" font-family="Helvetica,sans-Serif" font-size="10.00">x86/serial.h</text>
</a>
</g>
</g>
<!-- Node1&#45;&gt;Node3 -->
<g id="edge2" class="edge">
<title>Node1&#45;&gt;Node3</title>
<path fill="none" stroke="midnightblue" d="M329.58,-112.44C287.8,-102.76 219.85,-87.01 175.92,-76.83"/>
<polygon fill="midnightblue" stroke="midnightblue" points="176.64,-73.41 166.11,-74.56 175.06,-80.23 176.64,-73.41"/>
</g>
<!-- Node4 -->
<g id="node4" class="node">
<title>Node4</title>
<g id="a_node4"><a xlink:href="../../df/d76/greeting_8h.html" target="_top" xlink:title=" ">
<polygon fill="white" stroke="black" points="184,-56.5 184,-75.5 261,-75.5 261,-56.5 184,-56.5"/>
<text text-anchor="middle" x="222.5" y="-63.5" font-family="Helvetica,sans-Serif" font-size="10.00">x86/greeting.h</text>
</a>
</g>
</g>
<!-- Node1&#45;&gt;Node4 -->
<g id="edge3" class="edge">
<title>Node1&#45;&gt;Node4</title>
<path fill="none" stroke="midnightblue" d="M343.68,-112.44C319.67,-103.44 281.67,-89.19 254.63,-79.05"/>
<polygon fill="midnightblue" stroke="midnightblue" points="255.8,-75.75 245.21,-75.52 253.34,-82.3 255.8,-75.75"/>
</g>
<!-- Node5 -->
<g id="node5" class="node">
<title>Node5</title>
<g id="a_node5"><a xlink:href="../../df/d17/stivale2_8h.html" target="_top" xlink:title=" ">
<polygon fill="white" stroke="black" points="279.5,-56.5 279.5,-75.5 371.5,-75.5 371.5,-56.5 279.5,-56.5"/>
<text text-anchor="middle" x="325.5" y="-63.5" font-family="Helvetica,sans-Serif" font-size="10.00">generic/stivale2.h</text>
</a>
</g>
</g>
<!-- Node1&#45;&gt;Node5 -->
<g id="edge4" class="edge">
<title>Node1&#45;&gt;Node5</title>
<path fill="none" stroke="midnightblue" d="M359.73,-112.08C353.94,-104.46 345.44,-93.26 338.36,-83.94"/>
<polygon fill="midnightblue" stroke="midnightblue" points="340.98,-81.6 332.14,-75.75 335.4,-85.83 340.98,-81.6"/>
</g>
<!-- Node6 -->
<g id="node6" class="node">
<title>Node6</title>
<g id="a_node6"><a xlink:href="../../d5/d4a/gdt_8h.html" target="_top" xlink:title=" ">
<polygon fill="white" stroke="black" points="389.5,-56.5 389.5,-75.5 427.5,-75.5 427.5,-56.5 389.5,-56.5"/>
<text text-anchor="middle" x="408.5" y="-63.5" font-family="Helvetica,sans-Serif" font-size="10.00">gdt.h</text>
</a>
</g>
</g>
<!-- Node1&#45;&gt;Node6 -->
<g id="edge5" class="edge">
<title>Node1&#45;&gt;Node6</title>
<path fill="none" stroke="midnightblue" d="M373.44,-112.08C379.43,-104.38 388.25,-93.03 395.55,-83.65"/>
<polygon fill="midnightblue" stroke="midnightblue" points="398.32,-85.79 401.69,-75.75 392.79,-81.5 398.32,-85.79"/>
</g>
<!-- Node8 -->
<g id="node8" class="node">
<title>Node8</title>
<g id="a_node8"><a xlink:href="../../d4/d35/idt_8h.html" target="_top" xlink:title=" ">
<polygon fill="white" stroke="black" points="446,-56.5 446,-75.5 481,-75.5 481,-56.5 446,-56.5"/>
<text text-anchor="middle" x="463.5" y="-63.5" font-family="Helvetica,sans-Serif" font-size="10.00">idt.h</text>
</a>
</g>
</g>
<!-- Node1&#45;&gt;Node8 -->
<g id="edge7" class="edge">
<title>Node1&#45;&gt;Node8</title>
<path fill="none" stroke="midnightblue" d="M382.08,-112.32C397.5,-103.74 421.31,-90.49 439.21,-80.52"/>
<polygon fill="midnightblue" stroke="midnightblue" points="440.92,-83.58 447.95,-75.65 437.51,-77.46 440.92,-83.58"/>
</g>
<!-- Node9 -->
<g id="node9" class="node">
<title>Node9</title>
<g id="a_node9"><a xlink:href="../../da/ddd/cpuid_8h.html" target="_top" xlink:title=" ">
<polygon fill="white" stroke="black" points="499,-56.5 499,-75.5 546,-75.5 546,-56.5 499,-56.5"/>
<text text-anchor="middle" x="522.5" y="-63.5" font-family="Helvetica,sans-Serif" font-size="10.00">cpuid.h</text>
</a>
</g>
</g>
<!-- Node1&#45;&gt;Node9 -->
<g id="edge8" class="edge">
<title>Node1&#45;&gt;Node9</title>
<path fill="none" stroke="midnightblue" d="M391.22,-112.44C417.66,-103.29 459.74,-88.73 489.11,-78.56"/>
<polygon fill="midnightblue" stroke="midnightblue" points="490.61,-81.74 498.92,-75.16 488.32,-75.13 490.61,-81.74"/>
</g>
<!-- Node10 -->
<g id="node10" class="node">
<title>Node10</title>
<g id="a_node10"><a xlink:href="../../dc/d7a/pic_8h.html" target="_top" xlink:title=" ">
<polygon fill="white" stroke="black" points="564,-56.5 564,-75.5 601,-75.5 601,-56.5 564,-56.5"/>
<text text-anchor="middle" x="582.5" y="-63.5" font-family="Helvetica,sans-Serif" font-size="10.00">pic.h</text>
</a>
</g>
</g>
<!-- Node1&#45;&gt;Node10 -->
<g id="edge9" class="edge">
<title>Node1&#45;&gt;Node10</title>
<path fill="none" stroke="midnightblue" d="M406.95,-112.45C443.3,-104.53 498.31,-91.95 554.26,-76.18"/>
<polygon fill="midnightblue" stroke="midnightblue" points="555.32,-79.52 563.98,-73.41 553.4,-72.79 555.32,-79.52"/>
</g>
<!-- Node7 -->
<g id="node7" class="node">
<title>Node7</title>
<g id="a_node7"><a xlink:title=" ">
<polygon fill="white" stroke="#bfbfbf" points="365,-0.5 365,-19.5 452,-19.5 452,-0.5 365,-0.5"/>
<text text-anchor="middle" x="408.5" y="-7.5" font-family="Helvetica,sans-Serif" font-size="10.00">machine/types.h</text>
</a>
</g>
</g>
<!-- Node6&#45;&gt;Node7 -->
<g id="edge6" class="edge">
<title>Node6&#45;&gt;Node7</title>
<path fill="none" stroke="midnightblue" d="M408.5,-56.08C408.5,-49.01 408.5,-38.86 408.5,-29.99"/>
<polygon fill="midnightblue" stroke="midnightblue" points="412,-29.75 408.5,-19.75 405,-29.75 412,-29.75"/>
</g>
</g>
</svg>
