<?xml version="1.0" encoding="UTF-8" standalone="no"?>
<!DOCTYPE svg PUBLIC "-//W3C//DTD SVG 1.1//EN"
 "http://www.w3.org/Graphics/SVG/1.1/DTD/svg11.dtd">
<!-- Generated by graphviz version 9.0.0 (20230911.1827)
 -->
<!-- Title: sys/i686/unpaged_init.c Pages: 1 -->
<svg width="263pt" height="138pt"
 viewBox="0.00 0.00 262.61 137.75" xmlns="http://www.w3.org/2000/svg" xmlns:xlink="http://www.w3.org/1999/xlink">
<g id="graph0" class="graph" transform="scale(1 1) rotate(0) translate(4 133.75)">
<title>sys/i686/unpaged_init.c</title>
<!-- Node1 -->
<g id="Node000001" class="node">
<title>Node1</title>
<g id="a_Node000001"><a xlink:title=" ">
<polygon fill="#999999" stroke="#666666" points="137.98,-129.75 20.73,-129.75 20.73,-110.5 137.98,-110.5 137.98,-129.75"/>
<text text-anchor="middle" x="79.36" y="-116.25" font-family="Helvetica,sans-Serif" font-size="10.00">sys/i686/unpaged_init.c</text>
</a>
</g>
</g>
<!-- Node2 -->
<g id="Node000002" class="node">
<title>Node2</title>
<g id="a_Node000002"><a xlink:title=" ">
<polygon fill="#e0e0e0" stroke="#999999" points="76.11,-19.25 28.61,-19.25 28.61,0 76.11,0 76.11,-19.25"/>
<text text-anchor="middle" x="52.36" y="-5.75" font-family="Helvetica,sans-Serif" font-size="10.00">stdint.h</text>
</a>
</g>
</g>
<!-- Node1&#45;&gt;Node2 -->
<g id="edge1_Node000001_Node000002" class="edge">
<title>Node1&#45;&gt;Node2</title>
<g id="a_edge1_Node000001_Node000002"><a xlink:title=" ">
<path fill="none" stroke="#63b8ff" d="M49.82,-110.04C32.99,-103.17 13.32,-91.9 3.36,-74.5 -6.84,-56.69 10.78,-38.3 27.66,-25.85"/>
<polygon fill="#63b8ff" stroke="#63b8ff" points="29.27,-28.99 35.53,-20.45 25.31,-23.22 29.27,-28.99"/>
</a>
</g>
</g>
<!-- Node3 -->
<g id="Node000003" class="node">
<title>Node3</title>
<g id="a_Node000003"><a xlink:title=" ">
<polygon fill="#e0e0e0" stroke="#999999" points="62.61,-74.5 12.11,-74.5 12.11,-55.25 62.61,-55.25 62.61,-74.5"/>
<text text-anchor="middle" x="37.36" y="-61" font-family="Helvetica,sans-Serif" font-size="10.00">stddef.h</text>
</a>
</g>
</g>
<!-- Node1&#45;&gt;Node3 -->
<g id="edge2_Node000001_Node000003" class="edge">
<title>Node1&#45;&gt;Node3</title>
<g id="a_edge2_Node000001_Node000003"><a xlink:title=" ">
<path fill="none" stroke="#63b8ff" d="M72.42,-110.33C66.74,-103.13 58.52,-92.71 51.47,-83.76"/>
<polygon fill="#63b8ff" stroke="#63b8ff" points="54.32,-81.73 45.38,-76.05 48.83,-86.07 54.32,-81.73"/>
</a>
</g>
</g>
<!-- Node4 -->
<g id="Node000004" class="node">
<title>Node4</title>
<g id="a_Node000004"><a xlink:href="../../d1/dc0/multiboot_8h.html" target="_top" xlink:title=" ">
<polygon fill="white" stroke="#666666" points="161.98,-74.5 80.73,-74.5 80.73,-55.25 161.98,-55.25 161.98,-74.5"/>
<text text-anchor="middle" x="121.36" y="-61" font-family="Helvetica,sans-Serif" font-size="10.00">sys/multiboot.h</text>
</a>
</g>
</g>
<!-- Node1&#45;&gt;Node4 -->
<g id="edge3_Node000001_Node000004" class="edge">
<title>Node1&#45;&gt;Node4</title>
<g id="a_edge3_Node000001_Node000004"><a xlink:title=" ">
<path fill="none" stroke="#63b8ff" d="M86.29,-110.33C91.98,-103.13 100.2,-92.71 107.25,-83.76"/>
<polygon fill="#63b8ff" stroke="#63b8ff" points="109.89,-86.07 113.34,-76.05 104.39,-81.73 109.89,-86.07"/>
</a>
</g>
</g>
<!-- Node5 -->
<g id="Node000005" class="node">
<title>Node5</title>
<g id="a_Node000005"><a xlink:href="../../d9/dcc/kinfo_8h.html" target="_top" xlink:title=" ">
<polygon fill="white" stroke="#666666" points="254.61,-74.5 180.11,-74.5 180.11,-55.25 254.61,-55.25 254.61,-74.5"/>
<text text-anchor="middle" x="217.36" y="-61" font-family="Helvetica,sans-Serif" font-size="10.00">fukuro/kinfo.h</text>
</a>
</g>
</g>
<!-- Node1&#45;&gt;Node5 -->
<g id="edge5_Node000001_Node000005" class="edge">
<title>Node1&#45;&gt;Node5</title>
<g id="a_edge5_Node000001_Node000005"><a xlink:title=" ">
<path fill="none" stroke="#63b8ff" d="M102.77,-110.09C124.87,-101.56 158.28,-88.67 183.33,-79.01"/>
<polygon fill="#63b8ff" stroke="#63b8ff" points="184.35,-82.36 192.42,-75.5 181.83,-75.83 184.35,-82.36"/>
</a>
</g>
</g>
<!-- Node4&#45;&gt;Node2 -->
<g id="edge4_Node000004_Node000002" class="edge">
<title>Node4&#45;&gt;Node2</title>
<g id="a_edge4_Node000004_Node000002"><a xlink:title=" ">
<path fill="none" stroke="#63b8ff" d="M109.65,-54.84C99.58,-47.07 84.82,-35.67 72.8,-26.4"/>
<polygon fill="#63b8ff" stroke="#63b8ff" points="75.14,-23.79 65.09,-20.45 70.87,-29.33 75.14,-23.79"/>
</a>
</g>
</g>
</g>
</svg>
