<?xml version="1.0" encoding="UTF-8" standalone="no"?>
<!DOCTYPE svg PUBLIC "-//W3C//DTD SVG 1.1//EN"
 "http://www.w3.org/Graphics/SVG/1.1/DTD/svg11.dtd">
<!-- Generated by graphviz version 9.0.0 (20230911.1827)
 -->
<!-- Title: sys/i686/unpaged_init.c Pages: 1 -->
<svg width="263pt" height="138pt"
 viewBox="0.00 0.00 263.48 137.75" xmlns="http://www.w3.org/2000/svg" xmlns:xlink="http://www.w3.org/1999/xlink">
<g id="graph0" class="graph" transform="scale(1 1) rotate(0) translate(4 133.75)">
<title>sys/i686/unpaged_init.c</title>
<!-- Node1 -->
<g id="Node000001" class="node">
<title>Node1</title>
<g id="a_Node000001"><a xlink:title=" ">
<polygon fill="#999999" stroke="#666666" points="138.86,-129.75 21.61,-129.75 21.61,-110.5 138.86,-110.5 138.86,-129.75"/>
<text text-anchor="middle" x="80.23" y="-116.25" font-family="Helvetica,sans-Serif" font-size="10.00">sys/i686/unpaged_init.c</text>
</a>
</g>
</g>
<!-- Node2 -->
<g id="Node000002" class="node">
<title>Node2</title>
<g id="a_Node000002"><a xlink:title=" ">
<polygon fill="#e0e0e0" stroke="#999999" points="145.98,-19.25 98.48,-19.25 98.48,0 145.98,0 145.98,-19.25"/>
<text text-anchor="middle" x="122.23" y="-5.75" font-family="Helvetica,sans-Serif" font-size="10.00">stdint.h</text>
</a>
</g>
</g>
<!-- Node1&#45;&gt;Node2 -->
<g id="edge1_Node000001_Node000002" class="edge">
<title>Node1&#45;&gt;Node2</title>
<g id="a_edge1_Node000001_Node000002"><a xlink:title=" ">
<path fill="none" stroke="#63b8ff" d="M53.38,-110.02C25.42,-99.02 -12.18,-79 4.23,-55.25 22.75,-28.45 59.59,-17.72 87.21,-13.45"/>
<polygon fill="#63b8ff" stroke="#63b8ff" points="87.44,-16.95 96.9,-12.18 86.53,-10.01 87.44,-16.95"/>
</a>
</g>
</g>
<!-- Node3 -->
<g id="Node000003" class="node">
<title>Node3</title>
<g id="a_Node000003"><a xlink:title=" ">
<polygon fill="#e0e0e0" stroke="#999999" points="63.48,-74.5 12.98,-74.5 12.98,-55.25 63.48,-55.25 63.48,-74.5"/>
<text text-anchor="middle" x="38.23" y="-61" font-family="Helvetica,sans-Serif" font-size="10.00">stddef.h</text>
</a>
</g>
</g>
<!-- Node1&#45;&gt;Node3 -->
<g id="edge2_Node000001_Node000003" class="edge">
<title>Node1&#45;&gt;Node3</title>
<g id="a_edge2_Node000001_Node000003"><a xlink:title=" ">
<path fill="none" stroke="#63b8ff" d="M73.3,-110.33C67.62,-103.13 59.4,-92.71 52.34,-83.76"/>
<polygon fill="#63b8ff" stroke="#63b8ff" points="55.2,-81.73 46.26,-76.05 49.7,-86.07 55.2,-81.73"/>
</a>
</g>
</g>
<!-- Node4 -->
<g id="Node000004" class="node">
<title>Node4</title>
<g id="a_Node000004"><a xlink:href="../../d1/dc0/multiboot_8h.html" target="_top" xlink:title=" ">
<polygon fill="white" stroke="#666666" points="162.86,-74.5 81.61,-74.5 81.61,-55.25 162.86,-55.25 162.86,-74.5"/>
<text text-anchor="middle" x="122.23" y="-61" font-family="Helvetica,sans-Serif" font-size="10.00">sys/multiboot.h</text>
</a>
</g>
</g>
<!-- Node1&#45;&gt;Node4 -->
<g id="edge3_Node000001_Node000004" class="edge">
<title>Node1&#45;&gt;Node4</title>
<g id="a_edge3_Node000001_Node000004"><a xlink:title=" ">
<path fill="none" stroke="#63b8ff" d="M87.17,-110.33C92.85,-103.13 101.07,-92.71 108.13,-83.76"/>
<polygon fill="#63b8ff" stroke="#63b8ff" points="110.77,-86.07 114.21,-76.05 105.27,-81.73 110.77,-86.07"/>
</a>
</g>
</g>
<!-- Node5 -->
<g id="Node000005" class="node">
<title>Node5</title>
<g id="a_Node000005"><a xlink:href="../../d9/dcc/kinfo_8h.html" target="_top" xlink:title=" ">
<polygon fill="white" stroke="#666666" points="255.48,-74.5 180.98,-74.5 180.98,-55.25 255.48,-55.25 255.48,-74.5"/>
<text text-anchor="middle" x="218.23" y="-61" font-family="Helvetica,sans-Serif" font-size="10.00">fukuro/kinfo.h</text>
</a>
</g>
</g>
<!-- Node1&#45;&gt;Node5 -->
<g id="edge5_Node000001_Node000005" class="edge">
<title>Node1&#45;&gt;Node5</title>
<g id="a_edge5_Node000001_Node000005"><a xlink:title=" ">
<path fill="none" stroke="#63b8ff" d="M103.64,-110.09C125.75,-101.56 159.15,-88.67 184.2,-79.01"/>
<polygon fill="#63b8ff" stroke="#63b8ff" points="185.23,-82.36 193.3,-75.5 182.71,-75.83 185.23,-82.36"/>
</a>
</g>
</g>
<!-- Node4&#45;&gt;Node2 -->
<g id="edge4_Node000004_Node000002" class="edge">
<title>Node4&#45;&gt;Node2</title>
<g id="a_edge4_Node000004_Node000002"><a xlink:title=" ">
<path fill="none" stroke="#63b8ff" d="M122.23,-55.08C122.23,-48.57 122.23,-39.42 122.23,-31.12"/>
<polygon fill="#63b8ff" stroke="#63b8ff" points="125.73,-31.12 122.23,-21.12 118.73,-31.12 125.73,-31.12"/>
</a>
</g>
</g>
<!-- Node5&#45;&gt;Node2 -->
<g id="edge6_Node000005_Node000002" class="edge">
<title>Node5&#45;&gt;Node2</title>
<g id="a_edge6_Node000005_Node000002"><a xlink:title=" ">
<path fill="none" stroke="#63b8ff" d="M201.95,-54.84C187.33,-46.73 165.61,-34.68 148.53,-25.21"/>
<polygon fill="#63b8ff" stroke="#63b8ff" points="150.37,-22.23 139.92,-20.44 146.97,-28.35 150.37,-22.23"/>
</a>
</g>
</g>
</g>
</svg>
