<?xml version="1.0" encoding="UTF-8" standalone="no"?>
<!DOCTYPE svg PUBLIC "-//W3C//DTD SVG 1.1//EN"
 "http://www.w3.org/Graphics/SVG/1.1/DTD/svg11.dtd">
<!-- Generated by graphviz version 9.0.0 (20230911.1827)
 -->
<!-- Title: sys/i686/pmap.h Pages: 1 -->
<svg width="164pt" height="83pt"
 viewBox="0.00 0.00 163.50 82.50" xmlns="http://www.w3.org/2000/svg" xmlns:xlink="http://www.w3.org/1999/xlink">
<g id="graph0" class="graph" transform="scale(1 1) rotate(0) translate(4 78.5)">
<title>sys/i686/pmap.h</title>
<!-- Node1 -->
<g id="Node000001" class="node">
<title>Node1</title>
<g id="a_Node000001"><a xlink:title=" ">
<polygon fill="#999999" stroke="#666666" points="110,-74.5 23.5,-74.5 23.5,-55.25 110,-55.25 110,-74.5"/>
<text text-anchor="middle" x="66.75" y="-61" font-family="Helvetica,sans-Serif" font-size="10.00">sys/i686/pmap.h</text>
</a>
</g>
</g>
<!-- Node2 -->
<g id="Node000002" class="node">
<title>Node2</title>
<g id="a_Node000002"><a xlink:title=" ">
<polygon fill="#e0e0e0" stroke="#999999" points="47.5,-19.25 0,-19.25 0,0 47.5,0 47.5,-19.25"/>
<text text-anchor="middle" x="23.75" y="-5.75" font-family="Helvetica,sans-Serif" font-size="10.00">stdint.h</text>
</a>
</g>
</g>
<!-- Node1&#45;&gt;Node2 -->
<g id="edge1_Node000001_Node000002" class="edge">
<title>Node1&#45;&gt;Node2</title>
<g id="a_edge1_Node000001_Node000002"><a xlink:title=" ">
<path fill="none" stroke="#63b8ff" d="M59.65,-55.08C53.83,-47.88 45.42,-37.46 38.19,-28.51"/>
<polygon fill="#63b8ff" stroke="#63b8ff" points="40.96,-26.37 31.96,-20.79 35.52,-30.77 40.96,-26.37"/>
</a>
</g>
</g>
<!-- Node3 -->
<g id="Node000003" class="node">
<title>Node3</title>
<g id="a_Node000003"><a xlink:href="../../df/d63/spinlock_8h.html" target="_top" xlink:title=" ">
<polygon fill="white" stroke="#666666" points="155.5,-19.25 66,-19.25 66,0 155.5,0 155.5,-19.25"/>
<text text-anchor="middle" x="110.75" y="-5.75" font-family="Helvetica,sans-Serif" font-size="10.00">fukuro/spinlock.h</text>
</a>
</g>
</g>
<!-- Node1&#45;&gt;Node3 -->
<g id="edge2_Node000001_Node000003" class="edge">
<title>Node1&#45;&gt;Node3</title>
<g id="a_edge2_Node000001_Node000003"><a xlink:title=" ">
<path fill="none" stroke="#63b8ff" d="M74.02,-55.08C80.03,-47.8 88.76,-37.23 96.21,-28.23"/>
<polygon fill="#63b8ff" stroke="#63b8ff" points="98.69,-30.71 102.36,-20.78 93.29,-26.26 98.69,-30.71"/>
</a>
</g>
</g>
</g>
</svg>
