<?xml version="1.0" encoding="UTF-8" standalone="no"?>
<!DOCTYPE svg PUBLIC "-//W3C//DTD SVG 1.1//EN"
 "http://www.w3.org/Graphics/SVG/1.1/DTD/svg11.dtd">
<!-- Generated by graphviz version 9.0.0 (20230911.1827)
 -->
<!-- Title: sys/include/fukuro/kinfo.h Pages: 1 -->
<svg width="206pt" height="94pt"
 viewBox="0.00 0.00 205.88 93.75" xmlns="http://www.w3.org/2000/svg" xmlns:xlink="http://www.w3.org/1999/xlink">
<g id="graph0" class="graph" transform="scale(1 1) rotate(0) translate(4 89.75)">
<title>sys/include/fukuro/kinfo.h</title>
<!-- Node1 -->
<g id="Node000001" class="node">
<title>Node1</title>
<g id="a_Node000001"><a xlink:title=" ">
<polygon fill="#999999" stroke="#666666" points="160,-85.75 65.25,-85.75 65.25,-55.25 160,-55.25 160,-85.75"/>
<text text-anchor="start" x="73.25" y="-72.25" font-family="Helvetica,sans-Serif" font-size="10.00">sys/include/fukuro</text>
<text text-anchor="middle" x="112.62" y="-61" font-family="Helvetica,sans-Serif" font-size="10.00">/kinfo.h</text>
</a>
</g>
</g>
<!-- Node2 -->
<g id="Node000002" class="node">
<title>Node2</title>
<g id="a_Node000002"><a xlink:href="../../dc/d58/unpaged__init_8c.html" target="_top" xlink:title=" ">
<polygon fill="white" stroke="#666666" points="117.25,-19.25 0,-19.25 0,0 117.25,0 117.25,-19.25"/>
<text text-anchor="middle" x="58.62" y="-5.75" font-family="Helvetica,sans-Serif" font-size="10.00">sys/i686/unpaged_init.c</text>
</a>
</g>
</g>
<!-- Node1&#45;&gt;Node2 -->
<g id="edge1_Node000001_Node000002" class="edge">
<title>Node1&#45;&gt;Node2</title>
<g id="a_edge1_Node000001_Node000002"><a xlink:title=" ">
<path fill="none" stroke="#63b8ff" d="M91.7,-46.68C83.06,-37.27 73.55,-26.89 66.95,-19.7"/>
<polygon fill="#63b8ff" stroke="#63b8ff" points="88.91,-48.83 98.25,-53.83 94.07,-44.1 88.91,-48.83"/>
</a>
</g>
</g>
<!-- Node3 -->
<g id="Node000003" class="node">
<title>Node3</title>
<g id="a_Node000003"><a xlink:href="../../db/d5c/sys_2main_8c.html" target="_top" xlink:title=" ">
<polygon fill="white" stroke="#666666" points="197.88,-19.25 135.38,-19.25 135.38,0 197.88,0 197.88,-19.25"/>
<text text-anchor="middle" x="166.62" y="-5.75" font-family="Helvetica,sans-Serif" font-size="10.00">sys/main.c</text>
</a>
</g>
</g>
<!-- Node1&#45;&gt;Node3 -->
<g id="edge2_Node000001_Node000003" class="edge">
<title>Node1&#45;&gt;Node3</title>
<g id="a_edge2_Node000001_Node000003"><a xlink:title=" ">
<path fill="none" stroke="#63b8ff" d="M133.55,-46.68C142.19,-37.27 151.7,-26.89 158.3,-19.7"/>
<polygon fill="#63b8ff" stroke="#63b8ff" points="131.18,-44.1 127,-53.83 136.34,-48.83 131.18,-44.1"/>
</a>
</g>
</g>
</g>
</svg>
