<?xml version="1.0" encoding="UTF-8" standalone="no"?>
<!DOCTYPE svg PUBLIC "-//W3C//DTD SVG 1.1//EN"
 "http://www.w3.org/Graphics/SVG/1.1/DTD/svg11.dtd">
<!-- Generated by graphviz version 9.0.0 (20230911.1827)
 -->
<!-- Title: src/kernel/arch/x86/32/cpuid.c Pages: 1 -->
<svg width="210pt" height="94pt"
 viewBox="0.00 0.00 210.12 93.75" xmlns="http://www.w3.org/2000/svg" xmlns:xlink="http://www.w3.org/1999/xlink">
<g id="graph0" class="graph" transform="scale(1 1) rotate(0) translate(4 89.75)">
<title>src/kernel/arch/x86/32/cpuid.c</title>
<!-- Node1 -->
<g id="Node000001" class="node">
<title>Node1</title>
<g id="a_Node000001"><a xlink:title=" ">
<polygon fill="#999999" stroke="#666666" points="151,-85.75 52.5,-85.75 52.5,-55.25 151,-55.25 151,-85.75"/>
<text text-anchor="start" x="60.5" y="-72.25" font-family="Helvetica,sans-Serif" font-size="10.00">src/kernel/arch/x86</text>
<text text-anchor="middle" x="101.75" y="-61" font-family="Helvetica,sans-Serif" font-size="10.00">/32/cpuid.c</text>
</a>
</g>
</g>
<!-- Node2 -->
<g id="Node000002" class="node">
<title>Node2</title>
<g id="a_Node000002"><a xlink:title=" ">
<polygon fill="#e0e0e0" stroke="#999999" points="47.5,-19.25 0,-19.25 0,0 47.5,0 47.5,-19.25"/>
<text text-anchor="middle" x="23.75" y="-5.75" font-family="Helvetica,sans-Serif" font-size="10.00">stdint.h</text>
</a>
</g>
</g>
<!-- Node1&#45;&gt;Node2 -->
<g id="edge1_Node000001_Node000002" class="edge">
<title>Node1&#45;&gt;Node2</title>
<g id="a_edge1_Node000001_Node000002"><a xlink:title=" ">
<path fill="none" stroke="#63b8ff" d="M82.47,-54.95C71.05,-46.33 56.57,-35.4 44.85,-26.55"/>
<polygon fill="#63b8ff" stroke="#63b8ff" points="47.07,-23.84 36.98,-20.61 42.86,-29.43 47.07,-23.84"/>
</a>
</g>
</g>
<!-- Node3 -->
<g id="Node000003" class="node">
<title>Node3</title>
<g id="a_Node000003"><a xlink:title=" ">
<polygon fill="#e0e0e0" stroke="#999999" points="137.5,-19.25 66,-19.25 66,0 137.5,0 137.5,-19.25"/>
<text text-anchor="middle" x="101.75" y="-5.75" font-family="Helvetica,sans-Serif" font-size="10.00">kern/logger.h</text>
</a>
</g>
</g>
<!-- Node1&#45;&gt;Node3 -->
<g id="edge2_Node000001_Node000003" class="edge">
<title>Node1&#45;&gt;Node3</title>
<g id="a_edge2_Node000001_Node000003"><a xlink:title=" ">
<path fill="none" stroke="#63b8ff" d="M101.75,-54.95C101.75,-47.71 101.75,-38.84 101.75,-30.94"/>
<polygon fill="#63b8ff" stroke="#63b8ff" points="105.25,-31.21 101.75,-21.21 98.25,-31.21 105.25,-31.21"/>
</a>
</g>
</g>
<!-- Node4 -->
<g id="Node000004" class="node">
<title>Node4</title>
<g id="a_Node000004"><a xlink:href="../../da/ddd/cpuid_8h.html" target="_top" xlink:title=" ">
<polygon fill="white" stroke="#666666" points="202.12,-19.25 155.38,-19.25 155.38,0 202.12,0 202.12,-19.25"/>
<text text-anchor="middle" x="178.75" y="-5.75" font-family="Helvetica,sans-Serif" font-size="10.00">cpuid.h</text>
</a>
</g>
</g>
<!-- Node1&#45;&gt;Node4 -->
<g id="edge3_Node000001_Node000004" class="edge">
<title>Node1&#45;&gt;Node4</title>
<g id="a_edge3_Node000001_Node000004"><a xlink:title=" ">
<path fill="none" stroke="#63b8ff" d="M120.78,-54.95C132.06,-46.33 146.35,-35.4 157.92,-26.55"/>
<polygon fill="#63b8ff" stroke="#63b8ff" points="159.86,-29.48 165.68,-20.62 155.61,-23.91 159.86,-29.48"/>
</a>
</g>
</g>
</g>
</svg>
