<?xml version="1.0" encoding="UTF-8" standalone="no"?>
<!DOCTYPE svg PUBLIC "-//W3C//DTD SVG 1.1//EN"
 "http://www.w3.org/Graphics/SVG/1.1/DTD/svg11.dtd">
<!-- Generated by graphviz version 9.0.0 (20230911.1827)
 -->
<!-- Title: src/kernel/arch/x86/64/include/machine/arch.h Pages: 1 -->
<svg width="150pt" height="105pt"
 viewBox="0.00 0.00 150.12 105.00" xmlns="http://www.w3.org/2000/svg" xmlns:xlink="http://www.w3.org/1999/xlink">
<g id="graph0" class="graph" transform="scale(1 1) rotate(0) translate(4 101)">
<title>src/kernel/arch/x86/64/include/machine/arch.h</title>
<!-- Node1 -->
<g id="Node000001" class="node">
<title>Node1</title>
<g id="a_Node000001"><a xlink:title=" ">
<polygon fill="#999999" stroke="#666666" points="129.88,-97 26.88,-97 26.88,-55.25 129.88,-55.25 129.88,-97"/>
<text text-anchor="start" x="34.88" y="-83.5" font-family="Helvetica,sans-Serif" font-size="10.00">src/kernel/arch/x86</text>
<text text-anchor="start" x="34.88" y="-72.25" font-family="Helvetica,sans-Serif" font-size="10.00">/64/include/machine</text>
<text text-anchor="middle" x="78.38" y="-61" font-family="Helvetica,sans-Serif" font-size="10.00">/arch.h</text>
</a>
</g>
</g>
<!-- Node2 -->
<g id="Node000002" class="node">
<title>Node2</title>
<g id="a_Node000002"><a xlink:href="../../dd/d58/generic_2arch_8h.html" target="_top" xlink:title=" ">
<polygon fill="white" stroke="#666666" points="76.75,-19.25 0,-19.25 0,0 76.75,0 76.75,-19.25"/>
<text text-anchor="middle" x="38.38" y="-5.75" font-family="Helvetica,sans-Serif" font-size="10.00">generic/arch.h</text>
</a>
</g>
</g>
<!-- Node1&#45;&gt;Node2 -->
<g id="edge1_Node000001_Node000002" class="edge">
<title>Node1&#45;&gt;Node2</title>
<g id="a_edge1_Node000001_Node000002"><a xlink:title=" ">
<path fill="none" stroke="#63b8ff" d="M65.94,-55.07C60.84,-46.84 54.96,-37.37 49.95,-29.29"/>
<polygon fill="#63b8ff" stroke="#63b8ff" points="53.04,-27.64 44.8,-20.98 47.09,-31.32 53.04,-27.64"/>
</a>
</g>
</g>
<!-- Node3 -->
<g id="Node000003" class="node">
<title>Node3</title>
<g id="a_Node000003"><a xlink:title=" ">
<polygon fill="#e0e0e0" stroke="#999999" points="142.12,-19.25 94.62,-19.25 94.62,0 142.12,0 142.12,-19.25"/>
<text text-anchor="middle" x="118.38" y="-5.75" font-family="Helvetica,sans-Serif" font-size="10.00">stdint.h</text>
</a>
</g>
</g>
<!-- Node1&#45;&gt;Node3 -->
<g id="edge2_Node000001_Node000003" class="edge">
<title>Node1&#45;&gt;Node3</title>
<g id="a_edge2_Node000001_Node000003"><a xlink:title=" ">
<path fill="none" stroke="#63b8ff" d="M90.81,-55.07C95.91,-46.84 101.79,-37.37 106.8,-29.29"/>
<polygon fill="#63b8ff" stroke="#63b8ff" points="109.66,-31.32 111.95,-20.98 103.71,-27.64 109.66,-31.32"/>
</a>
</g>
</g>
</g>
</svg>
