<?xml version="1.0" encoding="UTF-8" standalone="no"?>
<!DOCTYPE svg PUBLIC "-//W3C//DTD SVG 1.1//EN"
 "http://www.w3.org/Graphics/SVG/1.1/DTD/svg11.dtd">
<!-- Generated by graphviz version 9.0.0 (20230911.1827)
 -->
<!-- Title: src/kernel/arch/x86/32/idt.c Pages: 1 -->
<svg width="336pt" height="94pt"
 viewBox="0.00 0.00 335.75 93.75" xmlns="http://www.w3.org/2000/svg" xmlns:xlink="http://www.w3.org/1999/xlink">
<g id="graph0" class="graph" transform="scale(1 1) rotate(0) translate(4 89.75)">
<title>src/kernel/arch/x86/32/idt.c</title>
<!-- Node1 -->
<g id="Node000001" class="node">
<title>Node1</title>
<g id="a_Node000001"><a xlink:title=" ">
<polygon fill="#999999" stroke="#666666" points="237,-85.75 138.5,-85.75 138.5,-55.25 237,-55.25 237,-85.75"/>
<text text-anchor="start" x="146.5" y="-72.25" font-family="Helvetica,sans-Serif" font-size="10.00">src/kernel/arch/x86</text>
<text text-anchor="middle" x="187.75" y="-61" font-family="Helvetica,sans-Serif" font-size="10.00">/32/idt.c</text>
</a>
</g>
</g>
<!-- Node2 -->
<g id="Node000002" class="node">
<title>Node2</title>
<g id="a_Node000002"><a xlink:title=" ">
<polygon fill="#e0e0e0" stroke="#999999" points="47.5,-19.25 0,-19.25 0,0 47.5,0 47.5,-19.25"/>
<text text-anchor="middle" x="23.75" y="-5.75" font-family="Helvetica,sans-Serif" font-size="10.00">stdint.h</text>
</a>
</g>
</g>
<!-- Node1&#45;&gt;Node2 -->
<g id="edge1_Node000001_Node000002" class="edge">
<title>Node1&#45;&gt;Node2</title>
<g id="a_edge1_Node000001_Node000002"><a xlink:title=" ">
<path fill="none" stroke="#63b8ff" d="M146.79,-54.8C119.68,-45.06 84.51,-32.44 58.72,-23.18"/>
<polygon fill="#63b8ff" stroke="#63b8ff" points="59.96,-19.91 49.37,-19.82 57.6,-26.49 59.96,-19.91"/>
</a>
</g>
</g>
<!-- Node3 -->
<g id="Node000003" class="node">
<title>Node3</title>
<g id="a_Node000003"><a xlink:title=" ">
<polygon fill="#e0e0e0" stroke="#999999" points="134.38,-19.25 65.12,-19.25 65.12,0 134.38,0 134.38,-19.25"/>
<text text-anchor="middle" x="99.75" y="-5.75" font-family="Helvetica,sans-Serif" font-size="10.00">kern/string.h</text>
</a>
</g>
</g>
<!-- Node1&#45;&gt;Node3 -->
<g id="edge2_Node000001_Node000003" class="edge">
<title>Node1&#45;&gt;Node3</title>
<g id="a_edge2_Node000001_Node000003"><a xlink:title=" ">
<path fill="none" stroke="#63b8ff" d="M166,-54.95C152.86,-46.15 136.12,-34.96 122.76,-26.02"/>
<polygon fill="#63b8ff" stroke="#63b8ff" points="124.83,-23.19 114.57,-20.54 120.94,-29.01 124.83,-23.19"/>
</a>
</g>
</g>
<!-- Node4 -->
<g id="Node000004" class="node">
<title>Node4</title>
<g id="a_Node000004"><a xlink:title=" ">
<polygon fill="#e0e0e0" stroke="#999999" points="223.5,-19.25 152,-19.25 152,0 223.5,0 223.5,-19.25"/>
<text text-anchor="middle" x="187.75" y="-5.75" font-family="Helvetica,sans-Serif" font-size="10.00">kern/logger.h</text>
</a>
</g>
</g>
<!-- Node1&#45;&gt;Node4 -->
<g id="edge3_Node000001_Node000004" class="edge">
<title>Node1&#45;&gt;Node4</title>
<g id="a_edge3_Node000001_Node000004"><a xlink:title=" ">
<path fill="none" stroke="#63b8ff" d="M187.75,-54.95C187.75,-47.71 187.75,-38.84 187.75,-30.94"/>
<polygon fill="#63b8ff" stroke="#63b8ff" points="191.25,-31.21 187.75,-21.21 184.25,-31.21 191.25,-31.21"/>
</a>
</g>
</g>
<!-- Node5 -->
<g id="Node000005" class="node">
<title>Node5</title>
<g id="a_Node000005"><a xlink:href="../../d4/d35/idt_8h.html" target="_top" xlink:title=" ">
<polygon fill="white" stroke="#666666" points="275.75,-19.25 241.75,-19.25 241.75,0 275.75,0 275.75,-19.25"/>
<text text-anchor="middle" x="258.75" y="-5.75" font-family="Helvetica,sans-Serif" font-size="10.00">idt.h</text>
</a>
</g>
</g>
<!-- Node1&#45;&gt;Node5 -->
<g id="edge4_Node000001_Node000005" class="edge">
<title>Node1&#45;&gt;Node5</title>
<g id="a_edge4_Node000001_Node000005"><a xlink:title=" ">
<path fill="none" stroke="#63b8ff" d="M205.3,-54.95C215.59,-46.41 228.61,-35.62 239.23,-26.81"/>
<polygon fill="#63b8ff" stroke="#63b8ff" points="241.18,-29.74 246.64,-20.67 236.71,-24.36 241.18,-29.74"/>
</a>
</g>
</g>
<!-- Node6 -->
<g id="Node000006" class="node">
<title>Node6</title>
<g id="a_Node000006"><a xlink:href="../../d8/da8/isr_8h.html" target="_top" xlink:title=" ">
<polygon fill="white" stroke="#666666" points="327.75,-19.25 293.75,-19.25 293.75,0 327.75,0 327.75,-19.25"/>
<text text-anchor="middle" x="310.75" y="-5.75" font-family="Helvetica,sans-Serif" font-size="10.00">isr.h</text>
</a>
</g>
</g>
<!-- Node1&#45;&gt;Node6 -->
<g id="edge5_Node000001_Node000006" class="edge">
<title>Node1&#45;&gt;Node6</title>
<g id="a_edge5_Node000001_Node000006"><a xlink:title=" ">
<path fill="none" stroke="#63b8ff" d="M218.47,-54.8C238.31,-45.3 263.91,-33.05 283.11,-23.85"/>
<polygon fill="#63b8ff" stroke="#63b8ff" points="284.44,-27.1 291.95,-19.62 281.42,-20.79 284.44,-27.1"/>
</a>
</g>
</g>
</g>
</svg>
