<?xml version="1.0" encoding="UTF-8" standalone="no"?>
<!DOCTYPE svg PUBLIC "-//W3C//DTD SVG 1.1//EN"
 "http://www.w3.org/Graphics/SVG/1.1/DTD/svg11.dtd">
<!-- Generated by graphviz version 7.0.5 (20221223.1930)
 -->
<!-- Title: src/kernel/arch/x86/greeting.c Pages: 1 -->
<svg width="292pt" height="93pt"
 viewBox="0.00 0.00 292.00 93.00" xmlns="http://www.w3.org/2000/svg" xmlns:xlink="http://www.w3.org/1999/xlink">
<g id="graph0" class="graph" transform="scale(1 1) rotate(0) translate(4 89)">
<title>src/kernel/arch/x86/greeting.c</title>
<!-- Node1 -->
<g id="node1" class="node">
<title>Node1</title>
<g id="a_node1"><a xlink:title=" ">
<polygon fill="#999999" stroke="#666666" points="205,-85 106,-85 106,-55 205,-55 205,-85"/>
<text text-anchor="start" x="114" y="-73" font-family="Helvetica,sans-Serif" font-size="10.00">src/kernel/arch/x86</text>
<text text-anchor="middle" x="155.5" y="-62" font-family="Helvetica,sans-Serif" font-size="10.00">/greeting.c</text>
</a>
</g>
</g>
<!-- Node2 -->
<g id="node2" class="node">
<title>Node2</title>
<g id="a_node2"><a xlink:title=" ">
<polygon fill="#e0e0e0" stroke="#999999" points="83,-19 0,-19 0,0 83,0 83,-19"/>
<text text-anchor="middle" x="41.5" y="-7" font-family="Helvetica,sans-Serif" font-size="10.00">machine/arch.h</text>
</a>
</g>
</g>
<!-- Node1&#45;&gt;Node2 -->
<g id="edge1" class="edge">
<title>Node1&#45;&gt;Node2</title>
<path fill="none" stroke="#63b8ff" d="M127.32,-54.54C109.52,-45.4 86.63,-33.66 68.97,-24.6"/>
<polygon fill="#63b8ff" stroke="#63b8ff" points="70.58,-21.49 60.09,-20.04 67.38,-27.72 70.58,-21.49"/>
</g>
<!-- Node3 -->
<g id="node3" class="node">
<title>Node3</title>
<g id="a_node3"><a xlink:href="../../dd/da9/x86_2serial_8h.html" target="_top" xlink:title=" ">
<polygon fill="white" stroke="#666666" points="148,-19 101,-19 101,0 148,0 148,-19"/>
<text text-anchor="middle" x="124.5" y="-7" font-family="Helvetica,sans-Serif" font-size="10.00">serial.h</text>
</a>
</g>
</g>
<!-- Node1&#45;&gt;Node3 -->
<g id="edge2" class="edge">
<title>Node1&#45;&gt;Node3</title>
<path fill="none" stroke="#63b8ff" d="M147.84,-54.54C143.79,-46.91 138.79,-37.46 134.45,-29.27"/>
<polygon fill="#63b8ff" stroke="#63b8ff" points="137.58,-27.71 129.81,-20.51 131.4,-30.99 137.58,-27.71"/>
</g>
<!-- Node4 -->
<g id="node4" class="node">
<title>Node4</title>
<g id="a_node4"><a xlink:href="../../d2/d18/vga_8h.html" target="_top" xlink:title=" ">
<polygon fill="white" stroke="#666666" points="206.5,-19 166.5,-19 166.5,0 206.5,0 206.5,-19"/>
<text text-anchor="middle" x="186.5" y="-7" font-family="Helvetica,sans-Serif" font-size="10.00">vga.h</text>
</a>
</g>
</g>
<!-- Node1&#45;&gt;Node4 -->
<g id="edge3" class="edge">
<title>Node1&#45;&gt;Node4</title>
<path fill="none" stroke="#63b8ff" d="M163.16,-54.54C167.21,-46.91 172.21,-37.46 176.55,-29.27"/>
<polygon fill="#63b8ff" stroke="#63b8ff" points="179.6,-30.99 181.19,-20.51 173.42,-27.71 179.6,-30.99"/>
</g>
<!-- Node5 -->
<g id="node5" class="node">
<title>Node5</title>
<g id="a_node5"><a xlink:href="../../df/d76/greeting_8h.html" target="_top" xlink:title=" ">
<polygon fill="white" stroke="#666666" points="284,-19 225,-19 225,0 284,0 284,-19"/>
<text text-anchor="middle" x="254.5" y="-7" font-family="Helvetica,sans-Serif" font-size="10.00">greeting.h</text>
</a>
</g>
</g>
<!-- Node1&#45;&gt;Node5 -->
<g id="edge4" class="edge">
<title>Node1&#45;&gt;Node5</title>
<path fill="none" stroke="#63b8ff" d="M179.97,-54.54C195.14,-45.58 214.56,-34.1 229.77,-25.11"/>
<polygon fill="#63b8ff" stroke="#63b8ff" points="231.4,-28.22 238.23,-20.12 227.84,-22.19 231.4,-28.22"/>
</g>
</g>
</svg>
