<?xml version="1.0" encoding="UTF-8" standalone="no"?>
<!DOCTYPE svg PUBLIC "-//W3C//DTD SVG 1.1//EN"
 "http://www.w3.org/Graphics/SVG/1.1/DTD/svg11.dtd">
<!-- Generated by graphviz version 9.0.0 (20230911.1827)
 -->
<!-- Title: src/kernel/arch/x86/greeting.c Pages: 1 -->
<svg width="288pt" height="94pt"
 viewBox="0.00 0.00 288.00 93.75" xmlns="http://www.w3.org/2000/svg" xmlns:xlink="http://www.w3.org/1999/xlink">
<g id="graph0" class="graph" transform="scale(1 1) rotate(0) translate(4 89.75)">
<title>src/kernel/arch/x86/greeting.c</title>
<!-- Node1 -->
<g id="Node000001" class="node">
<title>Node1</title>
<g id="a_Node000001"><a xlink:title=" ">
<polygon fill="#999999" stroke="#666666" points="202.25,-85.75 103.75,-85.75 103.75,-55.25 202.25,-55.25 202.25,-85.75"/>
<text text-anchor="start" x="111.75" y="-72.25" font-family="Helvetica,sans-Serif" font-size="10.00">src/kernel/arch/x86</text>
<text text-anchor="middle" x="153" y="-61" font-family="Helvetica,sans-Serif" font-size="10.00">/greeting.c</text>
</a>
</g>
</g>
<!-- Node2 -->
<g id="Node000002" class="node">
<title>Node2</title>
<g id="a_Node000002"><a xlink:title=" ">
<polygon fill="#e0e0e0" stroke="#999999" points="82,-19.25 0,-19.25 0,0 82,0 82,-19.25"/>
<text text-anchor="middle" x="41" y="-5.75" font-family="Helvetica,sans-Serif" font-size="10.00">machine/arch.h</text>
</a>
</g>
</g>
<!-- Node1&#45;&gt;Node2 -->
<g id="edge1_Node000001_Node000002" class="edge">
<title>Node1&#45;&gt;Node2</title>
<g id="a_edge1_Node000001_Node000002"><a xlink:title=" ">
<path fill="none" stroke="#63b8ff" d="M125.03,-54.8C107.64,-45.66 85.4,-33.97 68.17,-24.91"/>
<polygon fill="#63b8ff" stroke="#63b8ff" points="70,-21.91 59.52,-20.36 66.74,-28.11 70,-21.91"/>
</a>
</g>
</g>
<!-- Node3 -->
<g id="Node000003" class="node">
<title>Node3</title>
<g id="a_Node000003"><a xlink:href="../../dd/da9/x86_2serial_8h.html" target="_top" xlink:title=" ">
<polygon fill="white" stroke="#666666" points="146.38,-19.25 99.62,-19.25 99.62,0 146.38,0 146.38,-19.25"/>
<text text-anchor="middle" x="123" y="-5.75" font-family="Helvetica,sans-Serif" font-size="10.00">serial.h</text>
</a>
</g>
</g>
<!-- Node1&#45;&gt;Node3 -->
<g id="edge2_Node000001_Node000003" class="edge">
<title>Node1&#45;&gt;Node3</title>
<g id="a_edge2_Node000001_Node000003"><a xlink:title=" ">
<path fill="none" stroke="#63b8ff" d="M145.58,-54.95C141.72,-47.36 136.94,-37.99 132.78,-29.82"/>
<polygon fill="#63b8ff" stroke="#63b8ff" points="135.97,-28.37 128.31,-21.05 129.73,-31.55 135.97,-28.37"/>
</a>
</g>
</g>
<!-- Node4 -->
<g id="Node000004" class="node">
<title>Node4</title>
<g id="a_Node000004"><a xlink:href="../../d2/d18/vga_8h.html" target="_top" xlink:title=" ">
<polygon fill="white" stroke="#666666" points="203.62,-19.25 164.38,-19.25 164.38,0 203.62,0 203.62,-19.25"/>
<text text-anchor="middle" x="184" y="-5.75" font-family="Helvetica,sans-Serif" font-size="10.00">vga.h</text>
</a>
</g>
</g>
<!-- Node1&#45;&gt;Node4 -->
<g id="edge3_Node000001_Node000004" class="edge">
<title>Node1&#45;&gt;Node4</title>
<g id="a_edge3_Node000001_Node000004"><a xlink:title=" ">
<path fill="none" stroke="#63b8ff" d="M160.66,-54.95C164.66,-47.36 169.59,-37.99 173.89,-29.82"/>
<polygon fill="#63b8ff" stroke="#63b8ff" points="176.95,-31.52 178.52,-21.04 170.76,-28.26 176.95,-31.52"/>
</a>
</g>
</g>
<!-- Node5 -->
<g id="Node000005" class="node">
<title>Node5</title>
<g id="a_Node000005"><a xlink:href="../../df/d76/greeting_8h.html" target="_top" xlink:title=" ">
<polygon fill="white" stroke="#666666" points="280,-19.25 222,-19.25 222,0 280,0 280,-19.25"/>
<text text-anchor="middle" x="251" y="-5.75" font-family="Helvetica,sans-Serif" font-size="10.00">greeting.h</text>
</a>
</g>
</g>
<!-- Node1&#45;&gt;Node5 -->
<g id="edge4_Node000001_Node000005" class="edge">
<title>Node1&#45;&gt;Node5</title>
<g id="a_edge4_Node000001_Node000005"><a xlink:title=" ">
<path fill="none" stroke="#63b8ff" d="M177.48,-54.8C192.4,-45.83 211.42,-34.41 226.37,-25.42"/>
<polygon fill="#63b8ff" stroke="#63b8ff" points="227.9,-28.58 234.67,-20.43 224.3,-22.58 227.9,-28.58"/>
</a>
</g>
</g>
</g>
</svg>
