<?xml version="1.0" encoding="UTF-8" standalone="no"?>
<!DOCTYPE svg PUBLIC "-//W3C//DTD SVG 1.1//EN"
 "http://www.w3.org/Graphics/SVG/1.1/DTD/svg11.dtd">
<!-- Generated by graphviz version 9.0.0 (20230911.1827)
 -->
<!-- Title: src/kernel/arch/x86/32/gdt.c Pages: 1 -->
<svg width="146pt" height="94pt"
 viewBox="0.00 0.00 145.50 93.75" xmlns="http://www.w3.org/2000/svg" xmlns:xlink="http://www.w3.org/1999/xlink">
<g id="graph0" class="graph" transform="scale(1 1) rotate(0) translate(4 89.75)">
<title>src/kernel/arch/x86/32/gdt.c</title>
<!-- Node1 -->
<g id="Node000001" class="node">
<title>Node1</title>
<g id="a_Node000001"><a xlink:title=" ">
<polygon fill="#999999" stroke="#666666" points="129.25,-85.75 30.75,-85.75 30.75,-55.25 129.25,-55.25 129.25,-85.75"/>
<text text-anchor="start" x="38.75" y="-72.25" font-family="Helvetica,sans-Serif" font-size="10.00">src/kernel/arch/x86</text>
<text text-anchor="middle" x="80" y="-61" font-family="Helvetica,sans-Serif" font-size="10.00">/32/gdt.c</text>
</a>
</g>
</g>
<!-- Node2 -->
<g id="Node000002" class="node">
<title>Node2</title>
<g id="a_Node000002"><a xlink:title=" ">
<polygon fill="#e0e0e0" stroke="#999999" points="82,-19.25 0,-19.25 0,0 82,0 82,-19.25"/>
<text text-anchor="middle" x="41" y="-5.75" font-family="Helvetica,sans-Serif" font-size="10.00">machine/arch.h</text>
</a>
</g>
</g>
<!-- Node1&#45;&gt;Node2 -->
<g id="edge1_Node000001_Node000002" class="edge">
<title>Node1&#45;&gt;Node2</title>
<g id="a_edge1_Node000001_Node000002"><a xlink:title=" ">
<path fill="none" stroke="#63b8ff" d="M70.36,-54.95C65.22,-47.19 58.84,-37.56 53.35,-29.26"/>
<polygon fill="#63b8ff" stroke="#63b8ff" points="56.29,-27.37 47.85,-20.96 50.45,-31.23 56.29,-27.37"/>
</a>
</g>
</g>
<!-- Node3 -->
<g id="Node000003" class="node">
<title>Node3</title>
<g id="a_Node000003"><a xlink:href="../../d5/d4a/gdt_8h.html" target="_top" xlink:title=" ">
<polygon fill="white" stroke="#666666" points="137.5,-19.25 100.5,-19.25 100.5,0 137.5,0 137.5,-19.25"/>
<text text-anchor="middle" x="119" y="-5.75" font-family="Helvetica,sans-Serif" font-size="10.00">gdt.h</text>
</a>
</g>
</g>
<!-- Node1&#45;&gt;Node3 -->
<g id="edge2_Node000001_Node000003" class="edge">
<title>Node1&#45;&gt;Node3</title>
<g id="a_edge2_Node000001_Node000003"><a xlink:title=" ">
<path fill="none" stroke="#63b8ff" d="M89.64,-54.95C94.78,-47.19 101.16,-37.56 106.65,-29.26"/>
<polygon fill="#63b8ff" stroke="#63b8ff" points="109.55,-31.23 112.15,-20.96 103.71,-27.37 109.55,-31.23"/>
</a>
</g>
</g>
</g>
</svg>
