<?xml version="1.0" encoding="UTF-8" standalone="no"?>
<!DOCTYPE svg PUBLIC "-//W3C//DTD SVG 1.1//EN"
 "http://www.w3.org/Graphics/SVG/1.1/DTD/svg11.dtd">
<!-- Generated by graphviz version 7.0.5 (20221223.1930)
 -->
<!-- Title: src/kernel/arch/x86/greeting.h Pages: 1 -->
<svg width="341pt" height="104pt"
 viewBox="0.00 0.00 341.00 104.00" xmlns="http://www.w3.org/2000/svg" xmlns:xlink="http://www.w3.org/1999/xlink">
<g id="graph0" class="graph" transform="scale(1 1) rotate(0) translate(4 100)">
<title>src/kernel/arch/x86/greeting.h</title>
<!-- Node1 -->
<g id="node1" class="node">
<title>Node1</title>
<g id="a_node1"><a xlink:title=" ">
<polygon fill="#999999" stroke="#666666" points="216,-96 117,-96 117,-66 216,-66 216,-96"/>
<text text-anchor="start" x="125" y="-84" font-family="Helvetica,sans-Serif" font-size="10.00">src/kernel/arch/x86</text>
<text text-anchor="middle" x="166.5" y="-73" font-family="Helvetica,sans-Serif" font-size="10.00">/greeting.h</text>
</a>
</g>
</g>
<!-- Node2 -->
<g id="node2" class="node">
<title>Node2</title>
<g id="a_node2"><a xlink:href="../../d1/d16/x86_232_2arch_8c.html" target="_top" xlink:title=" ">
<polygon fill="white" stroke="#666666" points="99,-30 0,-30 0,0 99,0 99,-30"/>
<text text-anchor="start" x="8" y="-18" font-family="Helvetica,sans-Serif" font-size="10.00">src/kernel/arch/x86</text>
<text text-anchor="middle" x="49.5" y="-7" font-family="Helvetica,sans-Serif" font-size="10.00">/32/arch.c</text>
</a>
</g>
</g>
<!-- Node1&#45;&gt;Node2 -->
<g id="edge1" class="edge">
<title>Node1&#45;&gt;Node2</title>
<path fill="none" stroke="#63b8ff" d="M130.27,-60.18C112.61,-50.52 91.76,-39.12 75.67,-30.31"/>
<polygon fill="#63b8ff" stroke="#63b8ff" points="128.46,-63.18 138.92,-64.91 131.82,-57.04 128.46,-63.18"/>
</g>
<!-- Node3 -->
<g id="node3" class="node">
<title>Node3</title>
<g id="a_node3"><a xlink:href="../../da/de0/x86_264_2arch_8c.html" target="_top" xlink:title=" ">
<polygon fill="white" stroke="#666666" points="216,-30 117,-30 117,0 216,0 216,-30"/>
<text text-anchor="start" x="125" y="-18" font-family="Helvetica,sans-Serif" font-size="10.00">src/kernel/arch/x86</text>
<text text-anchor="middle" x="166.5" y="-7" font-family="Helvetica,sans-Serif" font-size="10.00">/64/arch.c</text>
</a>
</g>
</g>
<!-- Node1&#45;&gt;Node3 -->
<g id="edge2" class="edge">
<title>Node1&#45;&gt;Node3</title>
<path fill="none" stroke="#63b8ff" d="M166.5,-54.39C166.5,-46.13 166.5,-37.28 166.5,-30.16"/>
<polygon fill="#63b8ff" stroke="#63b8ff" points="163,-54.28 166.5,-64.28 170,-54.28 163,-54.28"/>
</g>
<!-- Node4 -->
<g id="node4" class="node">
<title>Node4</title>
<g id="a_node4"><a xlink:href="../../da/d4d/greeting_8c.html" target="_top" xlink:title=" ">
<polygon fill="white" stroke="#666666" points="333,-30 234,-30 234,0 333,0 333,-30"/>
<text text-anchor="start" x="242" y="-18" font-family="Helvetica,sans-Serif" font-size="10.00">src/kernel/arch/x86</text>
<text text-anchor="middle" x="283.5" y="-7" font-family="Helvetica,sans-Serif" font-size="10.00">/greeting.c</text>
</a>
</g>
</g>
<!-- Node1&#45;&gt;Node4 -->
<g id="edge3" class="edge">
<title>Node1&#45;&gt;Node4</title>
<path fill="none" stroke="#63b8ff" d="M202.73,-60.18C220.39,-50.52 241.24,-39.12 257.33,-30.31"/>
<polygon fill="#63b8ff" stroke="#63b8ff" points="201.18,-57.04 194.08,-64.91 204.54,-63.18 201.18,-57.04"/>
</g>
</g>
</svg>
