<?xml version="1.0" encoding="UTF-8" standalone="no"?>
<!DOCTYPE svg PUBLIC "-//W3C//DTD SVG 1.1//EN"
 "http://www.w3.org/Graphics/SVG/1.1/DTD/svg11.dtd">
<!-- Generated by graphviz version 9.0.0 (20230911.1827)
 -->
<!-- Title: src/kernel/arch/x86/greeting.h Pages: 1 -->
<svg width="341pt" height="105pt"
 viewBox="0.00 0.00 340.50 105.00" xmlns="http://www.w3.org/2000/svg" xmlns:xlink="http://www.w3.org/1999/xlink">
<g id="graph0" class="graph" transform="scale(1 1) rotate(0) translate(4 101)">
<title>src/kernel/arch/x86/greeting.h</title>
<!-- Node1 -->
<g id="Node000001" class="node">
<title>Node1</title>
<g id="a_Node000001"><a xlink:title=" ">
<polygon fill="#999999" stroke="#666666" points="215.5,-97 117,-97 117,-66.5 215.5,-66.5 215.5,-97"/>
<text text-anchor="start" x="125" y="-83.5" font-family="Helvetica,sans-Serif" font-size="10.00">src/kernel/arch/x86</text>
<text text-anchor="middle" x="166.25" y="-72.25" font-family="Helvetica,sans-Serif" font-size="10.00">/greeting.h</text>
</a>
</g>
</g>
<!-- Node2 -->
<g id="Node000002" class="node">
<title>Node2</title>
<g id="a_Node000002"><a xlink:href="../../d1/d16/x86_232_2arch_8c.html" target="_top" xlink:title=" ">
<polygon fill="white" stroke="#666666" points="98.5,-30.5 0,-30.5 0,0 98.5,0 98.5,-30.5"/>
<text text-anchor="start" x="8" y="-17" font-family="Helvetica,sans-Serif" font-size="10.00">src/kernel/arch/x86</text>
<text text-anchor="middle" x="49.25" y="-5.75" font-family="Helvetica,sans-Serif" font-size="10.00">/32/arch.c</text>
</a>
</g>
</g>
<!-- Node1&#45;&gt;Node2 -->
<g id="edge1_Node000001_Node000002" class="edge">
<title>Node1&#45;&gt;Node2</title>
<g id="a_edge1_Node000001_Node000002"><a xlink:title=" ">
<path fill="none" stroke="#63b8ff" d="M129.8,-60.66C112.29,-51 91.68,-39.64 75.69,-30.83"/>
<polygon fill="#63b8ff" stroke="#63b8ff" points="127.93,-63.62 138.38,-65.38 131.31,-57.49 127.93,-63.62"/>
</a>
</g>
</g>
<!-- Node3 -->
<g id="Node000003" class="node">
<title>Node3</title>
<g id="a_Node000003"><a xlink:href="../../da/de0/x86_264_2arch_8c.html" target="_top" xlink:title=" ">
<polygon fill="white" stroke="#666666" points="215.5,-30.5 117,-30.5 117,0 215.5,0 215.5,-30.5"/>
<text text-anchor="start" x="125" y="-17" font-family="Helvetica,sans-Serif" font-size="10.00">src/kernel/arch/x86</text>
<text text-anchor="middle" x="166.25" y="-5.75" font-family="Helvetica,sans-Serif" font-size="10.00">/64/arch.c</text>
</a>
</g>
</g>
<!-- Node1&#45;&gt;Node3 -->
<g id="edge2_Node000001_Node000003" class="edge">
<title>Node1&#45;&gt;Node3</title>
<g id="a_edge2_Node000001_Node000003"><a xlink:title=" ">
<path fill="none" stroke="#63b8ff" d="M166.25,-54.81C166.25,-46.64 166.25,-37.91 166.25,-30.83"/>
<polygon fill="#63b8ff" stroke="#63b8ff" points="162.75,-54.6 166.25,-64.6 169.75,-54.6 162.75,-54.6"/>
</a>
</g>
</g>
<!-- Node4 -->
<g id="Node000004" class="node">
<title>Node4</title>
<g id="a_Node000004"><a xlink:href="../../da/d4d/greeting_8c.html" target="_top" xlink:title=" ">
<polygon fill="white" stroke="#666666" points="332.5,-30.5 234,-30.5 234,0 332.5,0 332.5,-30.5"/>
<text text-anchor="start" x="242" y="-17" font-family="Helvetica,sans-Serif" font-size="10.00">src/kernel/arch/x86</text>
<text text-anchor="middle" x="283.25" y="-5.75" font-family="Helvetica,sans-Serif" font-size="10.00">/greeting.c</text>
</a>
</g>
</g>
<!-- Node1&#45;&gt;Node4 -->
<g id="edge3_Node000001_Node000004" class="edge">
<title>Node1&#45;&gt;Node4</title>
<g id="a_edge3_Node000001_Node000004"><a xlink:title=" ">
<path fill="none" stroke="#63b8ff" d="M202.7,-60.66C220.21,-51 240.82,-39.64 256.81,-30.83"/>
<polygon fill="#63b8ff" stroke="#63b8ff" points="201.19,-57.49 194.12,-65.38 204.57,-63.62 201.19,-57.49"/>
</a>
</g>
</g>
</g>
</svg>
