<?xml version="1.0" encoding="UTF-8" standalone="no"?>
<!DOCTYPE svg PUBLIC "-//W3C//DTD SVG 1.1//EN"
 "http://www.w3.org/Graphics/SVG/1.1/DTD/svg11.dtd">
<!-- Generated by graphviz version 2.44.0 ()
 -->
<!-- Title: arch/aarch64/include/machine/arch.h Pages: 1 -->
<svg width="190pt" height="95pt"
 viewBox="0.00 0.00 190.00 95.00" xmlns="http://www.w3.org/2000/svg" xmlns:xlink="http://www.w3.org/1999/xlink">
<g id="graph0" class="graph" transform="scale(1 1) rotate(0) translate(4 91)">
<title>arch/aarch64/include/machine/arch.h</title>
<polygon fill="white" stroke="transparent" points="-4,4 -4,-91 186,-91 186,4 -4,4"/>
<!-- Node1 -->
<g id="node1" class="node">
<title>Node1</title>
<g id="a_node1"><a xlink:title=" ">
<polygon fill="#bfbfbf" stroke="black" points="35,-56.5 35,-86.5 142,-86.5 142,-56.5 35,-56.5"/>
<text text-anchor="start" x="43" y="-74.5" font-family="Helvetica,sans-Serif" font-size="10.00">arch/aarch64/include</text>
<text text-anchor="middle" x="88.5" y="-63.5" font-family="Helvetica,sans-Serif" font-size="10.00">/machine/arch.h</text>
</a>
</g>
</g>
<!-- Node2 -->
<g id="node2" class="node">
<title>Node2</title>
<g id="a_node2"><a xlink:href="../../dd/d58/generic_2arch_8h.html" target="_top" xlink:title=" ">
<polygon fill="white" stroke="black" points="0,-0.5 0,-19.5 77,-19.5 77,-0.5 0,-0.5"/>
<text text-anchor="middle" x="38.5" y="-7.5" font-family="Helvetica,sans-Serif" font-size="10.00">generic/arch.h</text>
</a>
</g>
</g>
<!-- Node1&#45;&gt;Node2 -->
<g id="edge1" class="edge">
<title>Node1&#45;&gt;Node2</title>
<path fill="none" stroke="midnightblue" d="M76.65,-56.4C69.39,-47.75 60.05,-36.64 52.43,-27.58"/>
<polygon fill="midnightblue" stroke="midnightblue" points="54.89,-25.06 45.78,-19.66 49.53,-29.57 54.89,-25.06"/>
</g>
<!-- Node3 -->
<g id="node3" class="node">
<title>Node3</title>
<g id="a_node3"><a xlink:title=" ">
<polygon fill="white" stroke="#bfbfbf" points="95,-0.5 95,-19.5 182,-19.5 182,-0.5 95,-0.5"/>
<text text-anchor="middle" x="138.5" y="-7.5" font-family="Helvetica,sans-Serif" font-size="10.00">machine/types.h</text>
</a>
</g>
</g>
<!-- Node1&#45;&gt;Node3 -->
<g id="edge2" class="edge">
<title>Node1&#45;&gt;Node3</title>
<path fill="none" stroke="midnightblue" d="M100.35,-56.4C107.61,-47.75 116.95,-36.64 124.57,-27.58"/>
<polygon fill="midnightblue" stroke="midnightblue" points="127.47,-29.57 131.22,-19.66 122.11,-25.06 127.47,-29.57"/>
</g>
</g>
</svg>
