<?xml version="1.0" encoding="UTF-8" standalone="no"?>
<!DOCTYPE svg PUBLIC "-//W3C//DTD SVG 1.1//EN"
 "http://www.w3.org/Graphics/SVG/1.1/DTD/svg11.dtd">
<!-- Generated by graphviz version 9.0.0 (20230911.1827)
 -->
<!-- Title: src/lib/minic/string.h Pages: 1 -->
<svg width="1035pt" height="83pt"
 viewBox="0.00 0.00 1035.25 82.50" xmlns="http://www.w3.org/2000/svg" xmlns:xlink="http://www.w3.org/1999/xlink">
<g id="graph0" class="graph" transform="scale(1 1) rotate(0) translate(4 78.5)">
<title>src/lib/minic/string.h</title>
<!-- Node1 -->
<g id="Node000001" class="node">
<title>Node1</title>
<g id="a_Node000001"><a xlink:title=" ">
<polygon fill="#999999" stroke="#666666" points="597,-74.5 494,-74.5 494,-55.25 597,-55.25 597,-74.5"/>
<text text-anchor="middle" x="545.5" y="-61" font-family="Helvetica,sans-Serif" font-size="10.00">src/lib/minic/string.h</text>
</a>
</g>
</g>
<!-- Node2 -->
<g id="Node000002" class="node">
<title>Node2</title>
<g id="a_Node000002"><a xlink:href="../../d1/d22/logger_8c.html" target="_top" xlink:title=" ">
<polygon fill="white" stroke="#666666" points="109,-19.25 0,-19.25 0,0 109,0 109,-19.25"/>
<text text-anchor="middle" x="54.5" y="-5.75" font-family="Helvetica,sans-Serif" font-size="10.00">src/lib/fukuro/logger.c</text>
</a>
</g>
</g>
<!-- Node1&#45;&gt;Node2 -->
<g id="edge1_Node000001_Node000002" class="edge">
<title>Node1&#45;&gt;Node2</title>
<g id="a_edge1_Node000001_Node000002"><a xlink:title=" ">
<path fill="none" stroke="#63b8ff" d="M482.21,-57.86C398.78,-49.79 247.5,-34.68 118.5,-19.25 115.49,-18.89 112.41,-18.51 109.3,-18.12"/>
<polygon fill="#63b8ff" stroke="#63b8ff" points="481.72,-61.32 492.01,-58.8 482.39,-54.36 481.72,-61.32"/>
</a>
</g>
</g>
<!-- Node3 -->
<g id="Node000003" class="node">
<title>Node3</title>
<g id="a_Node000003"><a xlink:href="../../d9/db3/itoa_8c.html" target="_top" xlink:title=" ">
<polygon fill="white" stroke="#666666" points="221.88,-19.25 127.12,-19.25 127.12,0 221.88,0 221.88,-19.25"/>
<text text-anchor="middle" x="174.5" y="-5.75" font-family="Helvetica,sans-Serif" font-size="10.00">src/lib/minic/itoa.c</text>
</a>
</g>
</g>
<!-- Node1&#45;&gt;Node3 -->
<g id="edge2_Node000001_Node000003" class="edge">
<title>Node1&#45;&gt;Node3</title>
<g id="a_edge2_Node000001_Node000003"><a xlink:title=" ">
<path fill="none" stroke="#63b8ff" d="M482.52,-55.09C419.11,-46.21 318.48,-32.01 231.5,-19.25 228.43,-18.8 225.27,-18.33 222.08,-17.86"/>
<polygon fill="#63b8ff" stroke="#63b8ff" points="481.64,-58.51 492.03,-56.43 482.61,-51.57 481.64,-58.51"/>
</a>
</g>
</g>
<!-- Node4 -->
<g id="Node000004" class="node">
<title>Node4</title>
<g id="a_Node000004"><a xlink:href="../../d3/db7/memset_8c.html" target="_top" xlink:title=" ">
<polygon fill="white" stroke="#666666" points="354.62,-19.25 240.38,-19.25 240.38,0 354.62,0 354.62,-19.25"/>
<text text-anchor="middle" x="297.5" y="-5.75" font-family="Helvetica,sans-Serif" font-size="10.00">src/lib/minic/memset.c</text>
</a>
</g>
</g>
<!-- Node1&#45;&gt;Node4 -->
<g id="edge3_Node000001_Node000004" class="edge">
<title>Node1&#45;&gt;Node4</title>
<g id="a_edge3_Node000001_Node000004"><a xlink:title=" ">
<path fill="none" stroke="#63b8ff" d="M491.99,-52.38C446.37,-42.59 381.7,-28.7 339.68,-19.68"/>
<polygon fill="#63b8ff" stroke="#63b8ff" points="491.16,-55.79 501.67,-54.46 492.63,-48.94 491.16,-55.79"/>
</a>
</g>
</g>
<!-- Node5 -->
<g id="Node000005" class="node">
<title>Node5</title>
<g id="a_Node000005"><a xlink:href="../../d3/d67/strlen_8c.html" target="_top" xlink:title=" ">
<polygon fill="white" stroke="#666666" points="476,-19.25 373,-19.25 373,0 476,0 476,-19.25"/>
<text text-anchor="middle" x="424.5" y="-5.75" font-family="Helvetica,sans-Serif" font-size="10.00">src/lib/minic/strlen.c</text>
</a>
</g>
</g>
<!-- Node1&#45;&gt;Node5 -->
<g id="edge4_Node000001_Node000005" class="edge">
<title>Node1&#45;&gt;Node5</title>
<g id="a_edge4_Node000001_Node000005"><a xlink:title=" ">
<path fill="none" stroke="#63b8ff" d="M514.59,-50.27C492.79,-40.68 464.19,-28.09 445.13,-19.7"/>
<polygon fill="#63b8ff" stroke="#63b8ff" points="513.03,-53.41 523.59,-54.23 515.85,-47 513.03,-53.41"/>
</a>
</g>
</g>
<!-- Node6 -->
<g id="Node000006" class="node">
<title>Node6</title>
<g id="a_Node000006"><a xlink:href="../../da/d1e/strrev_8c.html" target="_top" xlink:title=" ">
<polygon fill="white" stroke="#666666" points="597.38,-19.25 493.62,-19.25 493.62,0 597.38,0 597.38,-19.25"/>
<text text-anchor="middle" x="545.5" y="-5.75" font-family="Helvetica,sans-Serif" font-size="10.00">src/lib/minic/strrev.c</text>
</a>
</g>
</g>
<!-- Node1&#45;&gt;Node6 -->
<g id="edge5_Node000001_Node000006" class="edge">
<title>Node1&#45;&gt;Node6</title>
<g id="a_edge5_Node000001_Node000006"><a xlink:title=" ">
<path fill="none" stroke="#63b8ff" d="M545.5,-43.63C545.5,-35.34 545.5,-26.17 545.5,-19.61"/>
<polygon fill="#63b8ff" stroke="#63b8ff" points="542,-43.57 545.5,-53.57 549,-43.57 542,-43.57"/>
</a>
</g>
</g>
<!-- Node7 -->
<g id="Node000007" class="node">
<title>Node7</title>
<g id="a_Node000007"><a xlink:href="../../d2/dbd/itoa__test_8c.html" target="_top" xlink:title=" ">
<polygon fill="white" stroke="#666666" points="695.75,-19.25 615.25,-19.25 615.25,0 695.75,0 695.75,-19.25"/>
<text text-anchor="middle" x="655.5" y="-5.75" font-family="Helvetica,sans-Serif" font-size="10.00">test/itoa_test.c</text>
</a>
</g>
</g>
<!-- Node1&#45;&gt;Node7 -->
<g id="edge6_Node000001_Node000007" class="edge">
<title>Node1&#45;&gt;Node7</title>
<g id="a_edge6_Node000001_Node000007"><a xlink:title=" ">
<path fill="none" stroke="#63b8ff" d="M574.42,-49.87C594.13,-40.33 619.65,-27.98 636.75,-19.7"/>
<polygon fill="#63b8ff" stroke="#63b8ff" points="573,-46.67 565.52,-54.18 576.05,-52.98 573,-46.67"/>
</a>
</g>
</g>
<!-- Node8 -->
<g id="Node000008" class="node">
<title>Node8</title>
<g id="a_Node000008"><a xlink:href="../../de/d24/memset__test_8c.html" target="_top" xlink:title=" ">
<polygon fill="white" stroke="#666666" points="813.5,-19.25 713.5,-19.25 713.5,0 813.5,0 813.5,-19.25"/>
<text text-anchor="middle" x="763.5" y="-5.75" font-family="Helvetica,sans-Serif" font-size="10.00">test/memset_test.c</text>
</a>
</g>
</g>
<!-- Node1&#45;&gt;Node8 -->
<g id="edge7_Node000001_Node000008" class="edge">
<title>Node1&#45;&gt;Node8</title>
<g id="a_edge7_Node000001_Node000008"><a xlink:title=" ">
<path fill="none" stroke="#63b8ff" d="M593.56,-52.13C633.57,-42.36 689.71,-28.65 726.34,-19.7"/>
<polygon fill="#63b8ff" stroke="#63b8ff" points="592.83,-48.71 583.95,-54.48 594.5,-55.51 592.83,-48.71"/>
</a>
</g>
</g>
<!-- Node9 -->
<g id="Node000009" class="node">
<title>Node9</title>
<g id="a_Node000009"><a xlink:href="../../dc/dab/strlen__test_8c.html" target="_top" xlink:title=" ">
<polygon fill="white" stroke="#666666" points="919.88,-19.25 831.12,-19.25 831.12,0 919.88,0 919.88,-19.25"/>
<text text-anchor="middle" x="875.5" y="-5.75" font-family="Helvetica,sans-Serif" font-size="10.00">test/strlen_test.c</text>
</a>
</g>
</g>
<!-- Node1&#45;&gt;Node9 -->
<g id="edge8_Node000001_Node000009" class="edge">
<title>Node1&#45;&gt;Node9</title>
<g id="a_edge8_Node000001_Node000009"><a xlink:title=" ">
<path fill="none" stroke="#63b8ff" d="M608.51,-53.75C664.66,-44.73 749.06,-31.14 822.5,-19.25 825.17,-18.82 827.91,-18.37 830.68,-17.92"/>
<polygon fill="#63b8ff" stroke="#63b8ff" points="608.13,-50.27 598.82,-55.31 609.25,-57.18 608.13,-50.27"/>
</a>
</g>
</g>
<!-- Node10 -->
<g id="Node000010" class="node">
<title>Node10</title>
<g id="a_Node000010"><a xlink:href="../../db/d8b/strrev__test_8c.html" target="_top" xlink:title=" ">
<polygon fill="white" stroke="#666666" points="1027.25,-19.25 937.75,-19.25 937.75,0 1027.25,0 1027.25,-19.25"/>
<text text-anchor="middle" x="982.5" y="-5.75" font-family="Helvetica,sans-Serif" font-size="10.00">test/strrev_test.c</text>
</a>
</g>
</g>
<!-- Node1&#45;&gt;Node10 -->
<g id="edge9_Node000001_Node000010" class="edge">
<title>Node1&#45;&gt;Node10</title>
<g id="a_edge9_Node000001_Node000010"><a xlink:title=" ">
<path fill="none" stroke="#63b8ff" d="M608.57,-57.36C684.57,-49.31 816.07,-34.77 928.5,-19.25 931.42,-18.85 934.42,-18.42 937.44,-17.97"/>
<polygon fill="#63b8ff" stroke="#63b8ff" points="608.4,-53.85 598.82,-58.38 609.13,-60.82 608.4,-53.85"/>
</a>
</g>
</g>
</g>
</svg>
