<?xml version="1.0" encoding="UTF-8" standalone="no"?>
<!DOCTYPE svg PUBLIC "-//W3C//DTD SVG 1.1//EN"
 "http://www.w3.org/Graphics/SVG/1.1/DTD/svg11.dtd">
<!-- Generated by graphviz version 7.0.5 (20221223.1930)
 -->
<!-- Title: src/lib/minic/string.h Pages: 1 -->
<svg width="1043pt" height="82pt"
 viewBox="0.00 0.00 1043.00 82.00" xmlns="http://www.w3.org/2000/svg" xmlns:xlink="http://www.w3.org/1999/xlink">
<g id="graph0" class="graph" transform="scale(1 1) rotate(0) translate(4 78)">
<title>src/lib/minic/string.h</title>
<!-- Node1 -->
<g id="node1" class="node">
<title>Node1</title>
<g id="a_node1"><a xlink:title=" ">
<polygon fill="#999999" stroke="#666666" points="601,-74 497,-74 497,-55 601,-55 601,-74"/>
<text text-anchor="middle" x="549" y="-62" font-family="Helvetica,sans-Serif" font-size="10.00">src/lib/minic/string.h</text>
</a>
</g>
</g>
<!-- Node2 -->
<g id="node2" class="node">
<title>Node2</title>
<g id="a_node2"><a xlink:href="../../d1/d22/logger_8c.html" target="_top" xlink:title=" ">
<polygon fill="white" stroke="#666666" points="110,-19 0,-19 0,0 110,0 110,-19"/>
<text text-anchor="middle" x="55" y="-7" font-family="Helvetica,sans-Serif" font-size="10.00">src/lib/fukuro/logger.c</text>
</a>
</g>
</g>
<!-- Node1&#45;&gt;Node2 -->
<g id="edge1" class="edge">
<title>Node1&#45;&gt;Node2</title>
<path fill="none" stroke="#63b8ff" d="M485.26,-57.49C401.26,-49.42 248.91,-34.35 119,-19 116.22,-18.67 113.37,-18.33 110.49,-17.97"/>
<polygon fill="#63b8ff" stroke="#63b8ff" points="484.86,-60.96 495.15,-58.43 485.53,-53.99 484.86,-60.96"/>
</g>
<!-- Node3 -->
<g id="node3" class="node">
<title>Node3</title>
<g id="a_node3"><a xlink:href="../../d9/db3/itoa_8c.html" target="_top" xlink:title=" ">
<polygon fill="white" stroke="#666666" points="223.5,-19 128.5,-19 128.5,0 223.5,0 223.5,-19"/>
<text text-anchor="middle" x="176" y="-7" font-family="Helvetica,sans-Serif" font-size="10.00">src/lib/minic/itoa.c</text>
</a>
</g>
</g>
<!-- Node1&#45;&gt;Node3 -->
<g id="edge2" class="edge">
<title>Node1&#45;&gt;Node3</title>
<path fill="none" stroke="#63b8ff" d="M485.41,-54.79C421.39,-45.96 319.8,-31.83 232,-19 229.37,-18.62 226.68,-18.22 223.96,-17.82"/>
<polygon fill="#63b8ff" stroke="#63b8ff" points="484.65,-58.21 495.03,-56.11 485.6,-51.28 484.65,-58.21"/>
</g>
<!-- Node4 -->
<g id="node4" class="node">
<title>Node4</title>
<g id="a_node4"><a xlink:href="../../d3/db7/memset_8c.html" target="_top" xlink:title=" ">
<polygon fill="white" stroke="#666666" points="356.5,-19 241.5,-19 241.5,0 356.5,0 356.5,-19"/>
<text text-anchor="middle" x="299" y="-7" font-family="Helvetica,sans-Serif" font-size="10.00">src/lib/minic/memset.c</text>
</a>
</g>
</g>
<!-- Node1&#45;&gt;Node4 -->
<g id="edge3" class="edge">
<title>Node1&#45;&gt;Node4</title>
<path fill="none" stroke="#63b8ff" d="M495.61,-52.18C449.48,-42.4 383.72,-28.46 341.2,-19.45"/>
<polygon fill="#63b8ff" stroke="#63b8ff" points="494.6,-55.55 505.11,-54.2 496.05,-48.7 494.6,-55.55"/>
</g>
<!-- Node5 -->
<g id="node5" class="node">
<title>Node5</title>
<g id="a_node5"><a xlink:href="../../d3/d67/strlen_8c.html" target="_top" xlink:title=" ">
<polygon fill="white" stroke="#666666" points="479,-19 375,-19 375,0 479,0 479,-19"/>
<text text-anchor="middle" x="427" y="-7" font-family="Helvetica,sans-Serif" font-size="10.00">src/lib/minic/strlen.c</text>
</a>
</g>
</g>
<!-- Node1&#45;&gt;Node5 -->
<g id="edge4" class="edge">
<title>Node1&#45;&gt;Node5</title>
<path fill="none" stroke="#63b8ff" d="M517.76,-49.93C495.64,-40.32 466.59,-27.7 447.39,-19.36"/>
<polygon fill="#63b8ff" stroke="#63b8ff" points="516.35,-53.13 526.92,-53.91 519.14,-46.71 516.35,-53.13"/>
</g>
<!-- Node6 -->
<g id="node6" class="node">
<title>Node6</title>
<g id="a_node6"><a xlink:href="../../da/d1e/strrev_8c.html" target="_top" xlink:title=" ">
<polygon fill="white" stroke="#666666" points="601,-19 497,-19 497,0 601,0 601,-19"/>
<text text-anchor="middle" x="549" y="-7" font-family="Helvetica,sans-Serif" font-size="10.00">src/lib/minic/strrev.c</text>
</a>
</g>
</g>
<!-- Node1&#45;&gt;Node6 -->
<g id="edge5" class="edge">
<title>Node1&#45;&gt;Node6</title>
<path fill="none" stroke="#63b8ff" d="M549,-43.35C549,-35.1 549,-25.97 549,-19.44"/>
<polygon fill="#63b8ff" stroke="#63b8ff" points="545.5,-43.23 549,-53.23 552.5,-43.23 545.5,-43.23"/>
</g>
<!-- Node7 -->
<g id="node7" class="node">
<title>Node7</title>
<g id="a_node7"><a xlink:href="../../d2/dbd/itoa__test_8c.html" target="_top" xlink:title=" ">
<polygon fill="white" stroke="#666666" points="700.5,-19 619.5,-19 619.5,0 700.5,0 700.5,-19"/>
<text text-anchor="middle" x="660" y="-7" font-family="Helvetica,sans-Serif" font-size="10.00">test/itoa_test.c</text>
</a>
</g>
</g>
<!-- Node1&#45;&gt;Node7 -->
<g id="edge6" class="edge">
<title>Node1&#45;&gt;Node7</title>
<path fill="none" stroke="#63b8ff" d="M577.97,-49.67C598.03,-40.09 624.14,-27.62 641.45,-19.36"/>
<polygon fill="#63b8ff" stroke="#63b8ff" points="576.71,-46.39 569.2,-53.86 579.73,-52.71 576.71,-46.39"/>
</g>
<!-- Node8 -->
<g id="node8" class="node">
<title>Node8</title>
<g id="a_node8"><a xlink:href="../../de/d24/memset__test_8c.html" target="_top" xlink:title=" ">
<polygon fill="white" stroke="#666666" points="819.5,-19 718.5,-19 718.5,0 819.5,0 819.5,-19"/>
<text text-anchor="middle" x="769" y="-7" font-family="Helvetica,sans-Serif" font-size="10.00">test/memset_test.c</text>
</a>
</g>
</g>
<!-- Node1&#45;&gt;Node8 -->
<g id="edge7" class="edge">
<title>Node1&#45;&gt;Node8</title>
<path fill="none" stroke="#63b8ff" d="M597.28,-51.87C637.8,-42.11 694.84,-28.37 731.86,-19.45"/>
<polygon fill="#63b8ff" stroke="#63b8ff" points="596.69,-48.41 587.79,-54.15 598.33,-55.22 596.69,-48.41"/>
</g>
<!-- Node9 -->
<g id="node9" class="node">
<title>Node9</title>
<g id="a_node9"><a xlink:href="../../dc/dab/strlen__test_8c.html" target="_top" xlink:title=" ">
<polygon fill="white" stroke="#666666" points="926.5,-19 837.5,-19 837.5,0 926.5,0 926.5,-19"/>
<text text-anchor="middle" x="882" y="-7" font-family="Helvetica,sans-Serif" font-size="10.00">test/strlen_test.c</text>
</a>
</g>
</g>
<!-- Node1&#45;&gt;Node9 -->
<g id="edge8" class="edge">
<title>Node1&#45;&gt;Node9</title>
<path fill="none" stroke="#63b8ff" d="M612.69,-53.4C669.45,-44.4 754.77,-30.85 829,-19 831.67,-18.57 834.41,-18.14 837.18,-17.69"/>
<polygon fill="#63b8ff" stroke="#63b8ff" points="612.21,-49.94 602.88,-54.96 613.3,-56.85 612.21,-49.94"/>
</g>
<!-- Node10 -->
<g id="node10" class="node">
<title>Node10</title>
<g id="a_node10"><a xlink:href="../../db/d8b/strrev__test_8c.html" target="_top" xlink:title=" ">
<polygon fill="white" stroke="#666666" points="1035,-19 945,-19 945,0 1035,0 1035,-19"/>
<text text-anchor="middle" x="990" y="-7" font-family="Helvetica,sans-Serif" font-size="10.00">test/strrev_test.c</text>
</a>
</g>
</g>
<!-- Node1&#45;&gt;Node10 -->
<g id="edge9" class="edge">
<title>Node1&#45;&gt;Node10</title>
<path fill="none" stroke="#63b8ff" d="M612.73,-56.99C689.51,-48.97 822.38,-34.47 936,-19 938.82,-18.62 941.72,-18.21 944.65,-17.78"/>
<polygon fill="#63b8ff" stroke="#63b8ff" points="612.44,-53.5 602.86,-58.02 613.17,-60.47 612.44,-53.5"/>
</g>
</g>
</svg>
