<?xml version="1.0" encoding="UTF-8" standalone="no"?>
<!DOCTYPE svg PUBLIC "-//W3C//DTD SVG 1.1//EN"
 "http://www.w3.org/Graphics/SVG/1.1/DTD/svg11.dtd">
<!-- Generated by graphviz version 7.0.5 (20221223.1930)
 -->
<!-- Title: src/kernel/arch/x86/vga.c Pages: 1 -->
<svg width="114pt" height="93pt"
 viewBox="0.00 0.00 114.00 93.00" xmlns="http://www.w3.org/2000/svg" xmlns:xlink="http://www.w3.org/1999/xlink">
<g id="graph0" class="graph" transform="scale(1 1) rotate(0) translate(4 89)">
<title>src/kernel/arch/x86/vga.c</title>
<!-- Node1 -->
<g id="node1" class="node">
<title>Node1</title>
<g id="a_node1"><a xlink:title=" ">
<polygon fill="#999999" stroke="#666666" points="104.5,-85 5.5,-85 5.5,-55 104.5,-55 104.5,-85"/>
<text text-anchor="start" x="13.5" y="-73" font-family="Helvetica,sans-Serif" font-size="10.00">src/kernel/arch/x86</text>
<text text-anchor="middle" x="55" y="-62" font-family="Helvetica,sans-Serif" font-size="10.00">/vga.c</text>
</a>
</g>
</g>
<!-- Node2 -->
<g id="node2" class="node">
<title>Node2</title>
<g id="a_node2"><a xlink:title=" ">
<polygon fill="#e0e0e0" stroke="#999999" points="48,-19 0,-19 0,0 48,0 48,-19"/>
<text text-anchor="middle" x="24" y="-7" font-family="Helvetica,sans-Serif" font-size="10.00">stdint.h</text>
</a>
</g>
</g>
<!-- Node1&#45;&gt;Node2 -->
<g id="edge1" class="edge">
<title>Node1&#45;&gt;Node2</title>
<path fill="none" stroke="#63b8ff" d="M47.34,-54.54C43.29,-46.91 38.29,-37.46 33.95,-29.27"/>
<polygon fill="#63b8ff" stroke="#63b8ff" points="37.08,-27.71 29.31,-20.51 30.9,-30.99 37.08,-27.71"/>
</g>
<!-- Node3 -->
<g id="node3" class="node">
<title>Node3</title>
<g id="a_node3"><a xlink:href="../../d2/d18/vga_8h.html" target="_top" xlink:title=" ">
<polygon fill="white" stroke="#666666" points="106,-19 66,-19 66,0 106,0 106,-19"/>
<text text-anchor="middle" x="86" y="-7" font-family="Helvetica,sans-Serif" font-size="10.00">vga.h</text>
</a>
</g>
</g>
<!-- Node1&#45;&gt;Node3 -->
<g id="edge2" class="edge">
<title>Node1&#45;&gt;Node3</title>
<path fill="none" stroke="#63b8ff" d="M62.66,-54.54C66.71,-46.91 71.71,-37.46 76.05,-29.27"/>
<polygon fill="#63b8ff" stroke="#63b8ff" points="79.1,-30.99 80.69,-20.51 72.92,-27.71 79.1,-30.99"/>
</g>
</g>
</svg>
