<?xml version="1.0" encoding="UTF-8" standalone="no"?>
<!DOCTYPE svg PUBLIC "-//W3C//DTD SVG 1.1//EN"
 "http://www.w3.org/Graphics/SVG/1.1/DTD/svg11.dtd">
<!-- Generated by graphviz version 3.0.0 (20220413.0242)
 -->
<!-- Title: arch/aarch64/rpi.h Pages: 1 -->
<svg width="235pt" height="84pt"
 viewBox="0.00 0.00 234.50 84.00" xmlns="http://www.w3.org/2000/svg" xmlns:xlink="http://www.w3.org/1999/xlink">
<g id="graph0" class="graph" transform="scale(1 1) rotate(0) translate(4 80)">
<title>arch/aarch64/rpi.h</title>
<polygon fill="white" stroke="transparent" points="-4,4 -4,-80 230.5,-80 230.5,4 -4,4"/>
<!-- Node1 -->
<g id="node1" class="node">
<title>Node1</title>
<g id="a_node1"><a xlink:title=" ">
<polygon fill="#bfbfbf" stroke="black" points="65,-56.5 65,-75.5 159,-75.5 159,-56.5 65,-56.5"/>
<text text-anchor="middle" x="112" y="-63.5" font-family="Helvetica,sans-Serif" font-size="10.00">arch/aarch64/rpi.h</text>
</a>
</g>
</g>
<!-- Node2 -->
<g id="node2" class="node">
<title>Node2</title>
<g id="a_node2"><a xlink:href="../../d0/d9d/aarch64_2arch_8c.html" target="_top" xlink:title=" ">
<polygon fill="white" stroke="black" points="0,-0.5 0,-19.5 102,-19.5 102,-0.5 0,-0.5"/>
<text text-anchor="middle" x="51" y="-7.5" font-family="Helvetica,sans-Serif" font-size="10.00">arch/aarch64/arch.c</text>
</a>
</g>
</g>
<!-- Node1&#45;&gt;Node2 -->
<g id="edge1" class="edge">
<title>Node1&#45;&gt;Node2</title>
<path fill="none" stroke="midnightblue" d="M94.53,-49.54C83.66,-39.91 70.06,-27.87 60.98,-19.83"/>
<polygon fill="midnightblue" stroke="midnightblue" points="92.39,-52.32 102.2,-56.32 97.03,-47.07 92.39,-52.32"/>
</g>
<!-- Node3 -->
<g id="node3" class="node">
<title>Node3</title>
<g id="a_node3"><a xlink:href="../../d5/d4d/aarch64_2serial_8c.html" target="_top" xlink:title=" ">
<polygon fill="white" stroke="black" points="119.5,-0.5 119.5,-19.5 226.5,-19.5 226.5,-0.5 119.5,-0.5"/>
<text text-anchor="middle" x="173" y="-7.5" font-family="Helvetica,sans-Serif" font-size="10.00">arch/aarch64/serial.c</text>
</a>
</g>
</g>
<!-- Node1&#45;&gt;Node3 -->
<g id="edge2" class="edge">
<title>Node1&#45;&gt;Node3</title>
<path fill="none" stroke="midnightblue" d="M129.47,-49.54C140.34,-39.91 153.94,-27.87 163.02,-19.83"/>
<polygon fill="midnightblue" stroke="midnightblue" points="126.97,-47.07 121.8,-56.32 131.61,-52.32 126.97,-47.07"/>
</g>
</g>
</svg>
