<?xml version="1.0" encoding="UTF-8" standalone="no"?>
<!DOCTYPE svg PUBLIC "-//W3C//DTD SVG 1.1//EN"
 "http://www.w3.org/Graphics/SVG/1.1/DTD/svg11.dtd">
<!-- Generated by graphviz version 7.0.5 (20221223.1930)
 -->
<!-- Title: src/kernel/arch/x86/serial.h Pages: 1 -->
<svg width="458pt" height="104pt"
 viewBox="0.00 0.00 458.00 104.00" xmlns="http://www.w3.org/2000/svg" xmlns:xlink="http://www.w3.org/1999/xlink">
<g id="graph0" class="graph" transform="scale(1 1) rotate(0) translate(4 100)">
<title>src/kernel/arch/x86/serial.h</title>
<!-- Node1 -->
<g id="node1" class="node">
<title>Node1</title>
<g id="a_node1"><a xlink:title=" ">
<polygon fill="#999999" stroke="#666666" points="274,-96 175,-96 175,-66 274,-66 274,-96"/>
<text text-anchor="start" x="183" y="-84" font-family="Helvetica,sans-Serif" font-size="10.00">src/kernel/arch/x86</text>
<text text-anchor="middle" x="224.5" y="-73" font-family="Helvetica,sans-Serif" font-size="10.00">/serial.h</text>
</a>
</g>
</g>
<!-- Node2 -->
<g id="node2" class="node">
<title>Node2</title>
<g id="a_node2"><a xlink:href="../../d1/d16/x86_232_2arch_8c.html" target="_top" xlink:title=" ">
<polygon fill="white" stroke="#666666" points="99,-30 0,-30 0,0 99,0 99,-30"/>
<text text-anchor="start" x="8" y="-18" font-family="Helvetica,sans-Serif" font-size="10.00">src/kernel/arch/x86</text>
<text text-anchor="middle" x="49.5" y="-7" font-family="Helvetica,sans-Serif" font-size="10.00">/32/arch.c</text>
</a>
</g>
</g>
<!-- Node1&#45;&gt;Node2 -->
<g id="edge1" class="edge">
<title>Node1&#45;&gt;Node2</title>
<path fill="none" stroke="#63b8ff" d="M174.75,-61.8C147.55,-51.86 114.33,-39.71 88.94,-30.43"/>
<polygon fill="#63b8ff" stroke="#63b8ff" points="173.21,-64.97 183.81,-65.12 175.62,-58.4 173.21,-64.97"/>
</g>
<!-- Node3 -->
<g id="node3" class="node">
<title>Node3</title>
<g id="a_node3"><a xlink:href="../../da/de0/x86_264_2arch_8c.html" target="_top" xlink:title=" ">
<polygon fill="white" stroke="#666666" points="216,-30 117,-30 117,0 216,0 216,-30"/>
<text text-anchor="start" x="125" y="-18" font-family="Helvetica,sans-Serif" font-size="10.00">src/kernel/arch/x86</text>
<text text-anchor="middle" x="166.5" y="-7" font-family="Helvetica,sans-Serif" font-size="10.00">/64/arch.c</text>
</a>
</g>
</g>
<!-- Node1&#45;&gt;Node3 -->
<g id="edge2" class="edge">
<title>Node1&#45;&gt;Node3</title>
<path fill="none" stroke="#63b8ff" d="M204.13,-57.53C195.89,-48.43 186.61,-38.19 179.34,-30.16"/>
<polygon fill="#63b8ff" stroke="#63b8ff" points="201.3,-59.62 210.61,-64.67 206.49,-54.91 201.3,-59.62"/>
</g>
<!-- Node4 -->
<g id="node4" class="node">
<title>Node4</title>
<g id="a_node4"><a xlink:href="../../da/d4d/greeting_8c.html" target="_top" xlink:title=" ">
<polygon fill="white" stroke="#666666" points="333,-30 234,-30 234,0 333,0 333,-30"/>
<text text-anchor="start" x="242" y="-18" font-family="Helvetica,sans-Serif" font-size="10.00">src/kernel/arch/x86</text>
<text text-anchor="middle" x="283.5" y="-7" font-family="Helvetica,sans-Serif" font-size="10.00">/greeting.c</text>
</a>
</g>
</g>
<!-- Node1&#45;&gt;Node4 -->
<g id="edge3" class="edge">
<title>Node1&#45;&gt;Node4</title>
<path fill="none" stroke="#63b8ff" d="M245.22,-57.53C253.61,-48.43 263.04,-38.19 270.44,-30.16"/>
<polygon fill="#63b8ff" stroke="#63b8ff" points="242.82,-54.96 238.62,-64.68 247.97,-59.7 242.82,-54.96"/>
</g>
<!-- Node5 -->
<g id="node5" class="node">
<title>Node5</title>
<g id="a_node5"><a xlink:href="../../db/d81/x86_2serial_8c.html" target="_top" xlink:title=" ">
<polygon fill="white" stroke="#666666" points="450,-30 351,-30 351,0 450,0 450,-30"/>
<text text-anchor="start" x="359" y="-18" font-family="Helvetica,sans-Serif" font-size="10.00">src/kernel/arch/x86</text>
<text text-anchor="middle" x="400.5" y="-7" font-family="Helvetica,sans-Serif" font-size="10.00">/serial.c</text>
</a>
</g>
</g>
<!-- Node1&#45;&gt;Node5 -->
<g id="edge4" class="edge">
<title>Node1&#45;&gt;Node5</title>
<path fill="none" stroke="#63b8ff" d="M274.54,-61.8C301.89,-51.86 335.29,-39.71 360.83,-30.43"/>
<polygon fill="#63b8ff" stroke="#63b8ff" points="273.62,-58.41 265.42,-65.12 276.01,-64.99 273.62,-58.41"/>
</g>
</g>
</svg>
